<?xml version="1.0" encoding="utf-8"?>
<!-- Generator: Adobe Illustrator 22.0.0, SVG Export Plug-In . SVG Version: 6.00 Build 0)  -->
<svg version="1.1" id="Layer_1" xmlns="http://www.w3.org/2000/svg" xmlns:xlink="http://www.w3.org/1999/xlink" x="0px" y="0px"
	 width="128px" height="128px" viewBox="0 0 128 128" style="enable-background:new 0 0 128 128;" xml:space="preserve">
<style type="text/css">
	.st0{fill:#4A75A9;}
	.st1{fill:#FFFFFF;}
</style>
<g id="Background">
	<path class="st0" d="M64,0C28.7,0,0,28.6,0,64s28.7,64,64,64c35.4,0,64-28.6,64-64S99.4,0,64,0z"/>
</g>
<path class="st1" d="M92,41.1v5.7c0,5-12.5,9.1-28,9.1s-28-4.1-28-9.1v-5.7c0-5,12.5-9.1,28-9.1S92,36.1,92,41.1z M92,54v12.9
	c0,5-12.5,9.1-28,9.1s-28-4.1-28-9.1V54c6,4.1,17,6.1,28,6.1S86,58.1,92,54z M92,74v12.9c0,5-12.5,9.1-28,9.1s-28-4.1-28-9.1V74
	c6,4.1,17,6.1,28,6.1S86,78.1,92,74z"/>
<path id="Icon32Background" class="st0" d="M88,72c-8.8,0-16,7.2-16,16s7.2,16,16,16s16-7.2,16-16S96.8,72,88,72z"/>
<path class="st1" d="M88,100c-6.6,0-12-5.4-12-12s5.4-12,12-12s12,5.4,12,12S94.6,100,88,100z M89.4,93.1l-3.7-3.5h8.8
	c0.6,0,1.2-0.5,1.2-1.2v-0.8c0-0.6-0.5-1.2-1.2-1.2h-8.8l3.7-3.5c0.5-0.4,0.5-1.2,0-1.7l-0.5-0.5c-0.5-0.5-1.2-0.5-1.6,0l-6.4,6.4
	c-0.5,0.5-0.5,1.2,0,1.6l6.4,6.4c0.5,0.5,1.2,0.5,1.6,0l0.5-0.5C89.9,94.3,89.9,93.5,89.4,93.1z"/>
</svg>
