<?xml version="1.0" encoding="utf-8"?>
<!-- Generator: Adobe Illustrator 22.0.0, SVG Export Plug-In . SVG Version: 6.00 Build 0)  -->
<svg version="1.1" id="Layer_1" xmlns="http://www.w3.org/2000/svg" xmlns:xlink="http://www.w3.org/1999/xlink" x="0px" y="0px"
	 width="128px" height="128px" viewBox="0 0 128 128" style="enable-background:new 0 0 128 128;" xml:space="preserve">
<style type="text/css">
	.st0{fill:#FFFFFF;stroke:#1D1D1B;stroke-width:0.2525;stroke-miterlimit:10;}
	.st1{fill:#FFFFFF;stroke:#FFFFFF;stroke-width:0.2525;stroke-linecap:round;stroke-linejoin:round;}
	.st2{fill:#559ED6;}
	.st3{fill:#FFFFFF;stroke:#FFFFFF;stroke-width:0.2525;stroke-miterlimit:10;}
	.st4{fill:#FFFFFF;stroke:#FFFFFF;stroke-width:0.2643;stroke-miterlimit:10;}
</style>
<g>
	<g>
		<path class="st0" d="M55.6,71.1"/>
		<path class="st1" d="M54.1,57.5"/>
		<path class="st2" d="M64,0C28.7,0,0,28.7,0,64s28.7,64,64,64s64-28.7,64-64S99.3,0,64,0z"/>
		<path class="st3" d="M73.4,72.6"/>
	</g>
	<g>
		<polygon class="st4" points="32.1,90.9 32.1,95.8 95.9,96 95.9,90.9 		"/>
		<polygon class="st4" points="87.3,83.4 87.3,56 79,56 78.9,83.6 74.7,83.5 74.7,55.8 66.1,56 66.1,83.6 61.9,83.6 61.9,56 
			53.4,56 53.4,82.6 53.4,84.1 49.2,84.1 49.2,81.8 49.1,56.2 40.6,56.2 40.6,83.9 39.2,83.9 36.3,83.9 36.3,88.4 91.7,88.4 
			91.7,83.4 		"/>
		<polygon class="st4" points="32,45.9 64.1,32 96,45.9 96,51 92.1,51 92.1,53.7 36,53.7 36,51 32,51 		"/>
	</g>
</g>
</svg>
