<?xml version="1.0" encoding="utf-8"?>
<!-- Generator: Adobe Illustrator 22.0.0, SVG Export Plug-In . SVG Version: 6.00 Build 0)  -->
<svg version="1.1" id="Layer_1" xmlns="http://www.w3.org/2000/svg" xmlns:xlink="http://www.w3.org/1999/xlink" x="0px" y="0px"
	 width="128px" height="128px" viewBox="0 0 128 128" style="enable-background:new 0 0 128 128;" xml:space="preserve">
<style type="text/css">
	.st0{fill:#6AA84F;}
	.st1{fill:#FFFFFF;}
</style>
<g id="Background">
	<path class="st0" d="M64,0C28.7,0,0,28.6,0,64s28.7,64,64,64c35.4,0,64-28.6,64-64S99.4,0,64,0z"/>
</g>
<path class="st1" d="M94.5,80c0.8,0,1.5,0.7,1.5,1.5v5c0,0.8-0.7,1.5-1.5,1.5h-61c-0.8,0-1.5-0.7-1.5-1.5v-45c0-0.8,0.7-1.5,1.5-1.5
	h5c0.8,0,1.5,0.7,1.5,1.5V80H94.5z M78.6,51.9L68,59L57.3,44.8c-0.6-0.8-1.9-0.8-2.5,0.1L44,63v13h48L80.8,52.5
	C80.4,51.7,79.3,51.4,78.6,51.9z"/>
<path id="Icon32Background" class="st0" d="M88,72c-8.8,0-16,7.2-16,16s7.2,16,16,16s16-7.2,16-16S96.8,72,88,72z"/>
<path class="st1" d="M97.1,89.7l2.1,1.2c0.2,0.1,0.3,0.4,0.3,0.7c-0.5,1.7-1.5,3.3-2.6,4.6c-0.2,0.2-0.5,0.2-0.7,0.1L94,95.1
	c-0.9,0.7-1.9,1.3-2.9,1.7v2.4c0,0.3-0.2,0.5-0.5,0.6c-1.7,0.4-3.5,0.4-5.3,0c-0.3-0.1-0.5-0.3-0.5-0.6v-2.4c-1.1-0.4-2.1-1-2.9-1.7
	l-2.1,1.2c-0.2,0.1-0.5,0.1-0.7-0.1c-1.2-1.3-2.1-2.9-2.6-4.6c-0.1-0.3,0-0.5,0.3-0.7l2.1-1.2c-0.2-1.1-0.2-2.3,0-3.4l-2.1-1.2
	c-0.2-0.1-0.3-0.4-0.3-0.7c0.5-1.7,1.5-3.3,2.6-4.6c0.2-0.2,0.5-0.2,0.7-0.1l2.1,1.2c0.9-0.7,1.9-1.3,2.9-1.7v-2.4
	c0-0.3,0.2-0.5,0.5-0.6c1.7-0.4,3.5-0.4,5.3,0c0.3,0.1,0.5,0.3,0.5,0.6v2.4c1.1,0.4,2.1,1,2.9,1.7l2.1-1.2c0.2-0.1,0.5-0.1,0.7,0.1
	c1.2,1.3,2.1,2.9,2.6,4.6c0.1,0.3,0,0.5-0.3,0.7l-2.1,1.2C97.3,87.4,97.3,88.6,97.1,89.7L97.1,89.7z M91.9,88c0-2.1-1.7-3.9-3.9-3.9
	s-3.9,1.7-3.9,3.9s1.7,3.9,3.9,3.9S91.9,90.1,91.9,88z"/>
</svg>
