<?xml version="1.0" encoding="utf-8"?>
<!-- Generator: Adobe Illustrator 22.0.0, SVG Export Plug-In . SVG Version: 6.00 Build 0)  -->
<svg version="1.1" id="Layer_1" xmlns="http://www.w3.org/2000/svg" xmlns:xlink="http://www.w3.org/1999/xlink" x="0px" y="0px"
	 width="128px" height="128px" viewBox="0 0 128 128" style="enable-background:new 0 0 128 128;" xml:space="preserve">
<style type="text/css">
	.st0{fill:#2B78E4;}
	.st1{fill:#FFFFFF;}
</style>
<g id="Background">
	<path class="st0" d="M64,0C28.7,0,0,28.6,0,64s28.7,64,64,64c35.4,0,64-28.6,64-64S99.4,0,64,0z"/>
</g>
<path id="Icon64" class="st1" d="M96,64c0,17.7-14.3,32-32,32c-17.7,0-32-14.3-32-32s14.3-32,32-32S96,46.3,96,64z M92,64
	c0-15.4-12.5-28-28-28c-15.4,0-28,12.6-28,28s12.6,28,28,28S92,79.4,92,64z M52.1,47.6L63,52.2l-4.6,10.9l-10.9-4.6L52.1,47.6
	L52.1,47.6z M65.9,68.7l5.8,11.8h-1.8L63.6,68l-6.1,12.5h-1.8l6.4-13.4l-2.8-1.2l0.8-1.8l8.6,3.6l-0.8,1.8L65.9,68.7z M64.4,54.2
	l8.6,3.7l-3.7,8.5l-8.5-3.6L64.4,54.2L64.4,54.2z M74.4,59.5l6.8,2.9l-2.9,6.8l-6.8-2.9L74.4,59.5L74.4,59.5z"/>
<path id="Icon32Background" class="st0" d="M88,72c-8.8,0-16,7.2-16,16s7.2,16,16,16s16-7.2,16-16S96.8,72,88,72z"/>
<path id="Icon24" class="st1" d="M99.7,96.8L95,92.1c-0.2-0.2-0.5-0.3-0.8-0.3h-0.8c1.3-1.7,2.1-3.7,2.1-6c0-5.4-4.4-9.8-9.8-9.8
	c-5.4,0-9.8,4.4-9.8,9.8c0,5.4,4.4,9.8,9.8,9.8c2.3,0,4.3-0.8,6-2.1v0.8c0,0.3,0.1,0.6,0.3,0.8l4.7,4.7c0.4,0.4,1.2,0.4,1.6,0
	l1.3-1.3C100.1,97.9,100.1,97.2,99.7,96.8z M85.8,91.7c-3.3,0-6-2.7-6-6c0-3.3,2.7-6,6-6c3.3,0,6,2.7,6,6
	C91.8,89.1,89.1,91.7,85.8,91.7z"/>
</svg>
