<?xml version="1.0" encoding="utf-8"?>
<!-- Generator: Adobe Illustrator 16.0.0, SVG Export Plug-In . SVG Version: 6.00 Build 0)  -->
<!DOCTYPE svg PUBLIC "-//W3C//DTD SVG 1.1//EN" "http://www.w3.org/Graphics/SVG/1.1/DTD/svg11.dtd">
<svg version="1.1" xmlns="http://www.w3.org/2000/svg" xmlns:xlink="http://www.w3.org/1999/xlink" x="0px" y="0px" width="128px"
	 height="128px" viewBox="0 0 128 128" enable-background="new 0 0 128 128" xml:space="preserve">
<g id="Layer_1" display="none">
	<g display="inline">
		<path fill="#F3961B" d="M64,0C28.656,0,0,28.654,0,64.003C0,99.344,28.656,128,64,128c35.34,0,64-28.656,64-63.997
			C128,28.654,99.34,0,64,0z"/>
		<g id="XMLID_6_">
			<path fill="#FCFCFC" d="M81.066,61.283c0.104,0.54,0.132,1.283,0.061,1.652c-0.072,0.369-0.975,1.515-1.363,1.903L57.901,86.702
				c-0.525,0.525-1.147,0.787-1.867,0.787s-1.342-0.262-1.867-0.787c-0.525-0.526-0.595-0.885-0.595-0.885
				c-0.105-0.54-0.192-1.432-0.192-1.981v-9.949c0-0.55-0.45-1-1-1H34.793c-0.72,0-1.343-0.265-1.869-0.79
				c-0.523-0.525-0.594-0.885-0.594-0.885c-0.106-0.54-0.192-1.432-0.192-1.981V54.298c0-0.72,0.263-1.341,0.786-1.867
				c0.526-0.525,0.888-0.596,0.888-0.596c0.54-0.105,1.432-0.192,1.981-0.192H52.38c0.55,0,1-0.45,1-1V39.695
				c0-0.719,0.262-1.341,0.787-1.868c0.525-0.525,1.147-0.788,1.867-0.788s1.042,0.222,1.042,0.222
				c0.453,0.311,1.143,0.884,1.531,1.273l21.863,21.863C80.996,60.922,81.066,61.283,81.066,61.283z M95.676,46.679
				c0.104,0.54,0.188,1.432,0.188,1.982V76.87c0,3.291-1.171,6.105-3.507,8.441c-2.338,2.338-7.461,3.318-7.461,3.318
				c-0.54,0.104-1.433,0.188-1.982,0.188H70.638c-0.357,0-0.668-0.132-0.932-0.394c-0.263-0.266-0.395-0.575-0.395-0.936
				c0-0.108-0.014-0.387-0.043-0.829c-0.028-0.443-0.035-0.81-0.021-1.1c0.015-0.291,0.058-0.615,0.125-0.975
				c0.071-0.36,0.209-0.631,0.415-0.809c0.209-0.18,0.209-0.18,0.209-0.18c0.353-0.05,1.092-0.091,1.642-0.091h12.276
				c1.827,0,3.388-0.65,4.69-1.948c1.296-1.301,1.76-3.707,1.76-3.707c0.104-0.54,0.189-1.432,0.189-1.981V47.661
				c0-1.826-0.653-3.387-1.949-4.688c-1.303-1.3-3.708-1.762-3.708-1.762c-0.54-0.104-1.433-0.188-1.982-0.188H71.972
				c-0.55,0-1.107-0.009-1.239-0.021c-0.133-0.011-0.347-0.048-0.477-0.083c-0.131-0.034-0.312-0.113-0.404-0.177
				c-0.092-0.062-0.232-0.198-0.312-0.301c-0.08-0.102-0.183-0.438-0.228-0.746l0,0c0-0.111-0.014-0.388-0.043-0.83
				c-0.028-0.443-0.035-0.809-0.021-1.1c0.015-0.291,0.058-0.615,0.125-0.975c0.071-0.36,0.209-0.629,0.415-0.809
				c0.209-0.179,0.209-0.179,0.209-0.179c0.353-0.05,1.092-0.09,1.642-0.09h12.276c3.293,0,6.105,1.168,8.443,3.505
				C94.693,41.555,95.676,46.679,95.676,46.679z"/>
		</g>
	</g>
	<g id="Layer_6" display="inline">
	</g>
	<g display="inline">
		<path fill="#F3961B" d="M64-0.288c-35.343,0-63.999,28.654-63.999,64.004c0,35.34,28.656,63.997,63.999,63.997
			c35.34,0,64-28.656,64-63.997C128.001,28.367,99.341-0.288,64-0.288z"/>
		<g id="XMLID_1_">
			<path fill="#FCFCFC" d="M81.067,60.995c0.104,0.54,0.132,1.283,0.06,1.652c-0.071,0.369-0.974,1.515-1.362,1.904L57.902,86.414
				c-0.525,0.525-1.147,0.787-1.867,0.787s-1.342-0.262-1.867-0.787s-0.595-0.884-0.595-0.884c-0.105-0.54-0.192-1.432-0.192-1.981
				V73.6c0-0.55-0.45-1-1-1H34.794c-0.72,0-1.343-0.266-1.869-0.791c-0.523-0.525-0.594-0.884-0.594-0.884
				c-0.106-0.54-0.192-1.432-0.192-1.981V54.011c0-0.721,0.263-1.342,0.786-1.867c0.526-0.525,0.888-0.596,0.888-0.596
				c0.54-0.105,1.432-0.191,1.981-0.191h16.587c0.55,0,1-0.45,1-1V39.408c0-0.719,0.262-1.342,0.787-1.867s1.147-0.788,1.867-0.788
				s1.042,0.222,1.042,0.222c0.453,0.312,1.143,0.885,1.531,1.273L80.472,60.11C80.997,60.634,81.067,60.995,81.067,60.995z
				 M95.677,46.391c0.104,0.54,0.188,1.432,0.188,1.982v28.209c0,3.291-1.171,6.105-3.507,8.441
				c-2.338,2.338-7.461,3.319-7.461,3.319c-0.54,0.104-1.433,0.188-1.982,0.188H70.639c-0.357,0-0.668-0.133-0.932-0.395
				c-0.263-0.266-0.395-0.574-0.395-0.936c0-0.107-0.014-0.387-0.043-0.828c-0.028-0.443-0.035-0.811-0.021-1.1
				c0.015-0.291,0.058-0.615,0.125-0.975c0.071-0.361,0.209-0.631,0.415-0.809c0.209-0.18,0.209-0.18,0.209-0.18
				c0.353-0.051,1.092-0.092,1.642-0.092h12.276c1.827,0,3.388-0.65,4.69-1.947c1.296-1.301,1.76-3.708,1.76-3.708
				c0.104-0.54,0.189-1.432,0.189-1.981V47.373c0-1.826-0.653-3.387-1.949-4.688c-1.303-1.301-3.708-1.762-3.708-1.762
				c-0.54-0.104-1.433-0.188-1.982-0.188H71.973c-0.55,0-1.107-0.009-1.24-0.021c-0.132-0.011-0.346-0.048-0.477-0.083
				c-0.13-0.034-0.312-0.114-0.403-0.177s-0.232-0.198-0.312-0.301s-0.183-0.438-0.228-0.747l0,0c0-0.111-0.014-0.389-0.043-0.83
				c-0.028-0.442-0.035-0.809-0.021-1.1c0.015-0.29,0.058-0.615,0.125-0.975c0.071-0.36,0.209-0.629,0.415-0.809
				c0.209-0.179,0.209-0.179,0.209-0.179c0.353-0.05,1.092-0.09,1.642-0.09h12.276c3.293,0,6.105,1.168,8.443,3.505
				C94.694,41.267,95.677,46.391,95.677,46.391z"/>
		</g>
	</g>
</g>
<g id="Layer_2" display="none">
	<g display="inline">
		<path fill="#E19851" d="M64.001,0c-35.343,0-64,28.656-64,64.002c0,35.341,28.657,63.998,64,63.998c35.344,0,64-28.656,64-63.998
			C128.001,28.656,99.345,0,64.001,0z"/>
	</g>
	<g display="inline">
		<g>
			<g>
				<g>
					<path fill="#FFFFFF" stroke="#FFFFFF" stroke-width="0.75" stroke-miterlimit="10" d="M67.699,61.971
						c0.161,0.355,0.478,0.562,0.808,0.562c0.133,0,0.271-0.038,0.402-0.112c0.056-0.033,5.354-3.101,7.969-4.041
						c0.474-0.171,0.733-0.746,0.589-1.288c-0.153-0.541-0.655-0.841-1.136-0.668c-2.753,0.992-8.017,4.04-8.241,4.167
						C67.653,60.849,67.475,61.464,67.699,61.971z"/>
					<path fill="#FFFFFF" stroke="#FFFFFF" stroke-width="0.75" stroke-miterlimit="10" d="M68.507,50.217
						c0.133,0,0.271-0.034,0.402-0.109c0.056-0.03,5.354-3.1,7.969-4.041c0.474-0.172,0.733-0.747,0.589-1.288
						c-0.153-0.54-0.655-0.84-1.136-0.669c-2.753,0.992-8.017,4.037-8.241,4.169c-0.437,0.255-0.615,0.875-0.391,1.38
						C67.86,50.011,68.177,50.217,68.507,50.217z"/>
					<path fill="#FFFFFF" stroke="#FFFFFF" stroke-width="2.5" stroke-miterlimit="10" d="M90.112,48.167
						c-0.498,0-0.904,0.46-0.904,1.027v40.01c0,1.697-1.207,3.08-2.7,3.08H64.901v-2.362c1.313-0.524,4.732-1.742,8.104-1.742
						c7.847,0,13.169,1.981,13.224,2c0.27,0.1,0.572,0.052,0.808-0.147c0.235-0.19,0.374-0.502,0.374-0.828V44.062
						c0-0.48-0.29-0.896-0.701-0.999c0,0-0.709-0.182-1.919-0.433c-0.484-0.104-0.954,0.268-1.046,0.823
						c-0.091,0.559,0.233,1.093,0.725,1.195c0.459,0.096,0.844,0.181,1.139,0.248v42.944c-2.037-0.61-6.569-1.717-12.604-1.717
						c-3.921,0-7.772,1.474-8.966,1.967c-1.06-0.534-4.264-1.967-8.14-1.967c-6.202,0-11.309,1.169-13.506,1.76V44.858
						c1.798-0.505,7.11-1.821,13.506-1.821c3.285,0,6.099,1.165,7.205,1.69V85.1c0,0.369,0.174,0.709,0.456,0.894
						c0.282,0.182,0.629,0.18,0.905-0.014c0.091-0.059,9.009-6.132,16.926-9.139c0.371-0.141,0.622-0.531,0.622-0.976V33.804
						c0-0.338-0.149-0.651-0.391-0.843c-0.24-0.192-0.554-0.236-0.828-0.119c-7.208,3.079-14.495,8.249-14.565,8.3
						c-0.423,0.3-0.554,0.933-0.288,1.414c0.263,0.479,0.817,0.625,1.243,0.325c0.063-0.046,6.403-4.542,13.026-7.577v39.828
						c-6.147,2.434-12.56,6.41-15.308,8.186V44.061c0-0.389-0.191-0.742-0.499-0.916c-0.151-0.085-3.844-2.159-8.505-2.159
						c-8.134,0-14.389,2.006-14.652,2.091c-0.387,0.125-0.654,0.528-0.654,0.984v45.142c0,0.322,0.133,0.624,0.358,0.821
						c0.156,0.136,0.349,0.206,0.542,0.206c0.082,0,0.167-0.01,0.248-0.044c0.063-0.018,6.29-2.006,14.158-2.006
						c3.292,0,6.105,1.168,7.205,1.688v2.414h-21.61c-1.488,0-2.701-1.383-2.701-3.08v-40.01c0-0.566-0.404-1.027-0.899-1.027
						c-0.498,0-0.902,0.46-0.902,1.027v40.01c0,2.83,2.018,5.131,4.501,5.131h45.016c2.482,0,4.504-2.301,4.504-5.131v-40.01
						C91.012,48.627,90.607,48.167,90.112,48.167z"/>
					<path fill="#FFFFFF" stroke="#FFFFFF" stroke-width="0.75" stroke-miterlimit="10" d="M67.699,55.813
						c0.161,0.355,0.478,0.562,0.808,0.562c0.133,0,0.271-0.036,0.402-0.114c0.056-0.029,5.354-3.099,7.969-4.04
						c0.474-0.171,0.733-0.746,0.589-1.287c-0.153-0.54-0.655-0.839-1.136-0.669c-2.753,0.992-8.017,4.04-8.241,4.17
						C67.653,54.691,67.475,55.308,67.699,55.813z"/>
					<path fill="#FFFFFF" stroke="#FFFFFF" stroke-width="0.75" stroke-miterlimit="10" d="M67.699,68.127
						c0.161,0.354,0.478,0.558,0.808,0.558c0.133,0,0.271-0.034,0.402-0.11c0.056-0.03,5.354-3.098,7.969-4.037
						c0.474-0.172,0.733-0.75,0.589-1.291c-0.153-0.538-0.655-0.84-1.136-0.671c-2.753,0.997-8.017,4.042-8.241,4.167
						C67.653,67.001,67.475,67.624,67.699,68.127z"/>
					<path fill="#FFFFFF" stroke="#FFFFFF" stroke-width="0.75" stroke-miterlimit="10" d="M58.805,51.816
						c-5.56-1.486-11.879,0.409-12.145,0.491c-0.477,0.146-0.765,0.706-0.635,1.257c0.107,0.455,0.47,0.76,0.869,0.76
						c0.077,0,0.155-0.015,0.233-0.036c0.058-0.021,6.144-1.845,11.268-0.474c0.482,0.127,0.968-0.213,1.081-0.767
						C59.59,52.498,59.288,51.946,58.805,51.816z"/>
					<path fill="#FFFFFF" stroke="#FFFFFF" stroke-width="0.75" stroke-miterlimit="10" d="M58.805,57.972
						c-5.56-1.484-11.879,0.409-12.145,0.491c-0.477,0.147-0.765,0.708-0.635,1.256c0.107,0.461,0.47,0.76,0.869,0.76
						c0.077,0,0.155-0.011,0.233-0.036c0.058-0.017,6.144-1.84,11.268-0.469c0.482,0.122,0.968-0.216,1.081-0.769
						C59.59,58.653,59.288,58.103,58.805,57.972z"/>
					<path fill="#FFFFFF" stroke="#FFFFFF" stroke-width="0.75" stroke-miterlimit="10" d="M67.699,74.279
						c0.161,0.356,0.478,0.562,0.808,0.562c0.133,0,0.271-0.037,0.402-0.111c0.056-0.03,5.354-3.098,7.969-4.035
						c0.474-0.175,0.733-0.755,0.589-1.291c-0.153-0.538-0.655-0.84-1.136-0.67c-2.753,0.993-8.017,4.036-8.241,4.165
						C67.653,73.157,67.475,73.773,67.699,74.279z"/>
					<path fill="#FFFFFF" stroke="#FFFFFF" stroke-width="0.75" stroke-miterlimit="10" d="M58.805,64.132
						c-5.56-1.49-11.879,0.405-12.145,0.484c-0.477,0.148-0.765,0.71-0.635,1.259c0.107,0.459,0.47,0.761,0.869,0.761
						c0.077,0,0.155-0.012,0.233-0.034c0.058-0.021,6.144-1.847,11.268-0.476c0.482,0.128,0.968-0.211,1.081-0.762
						C59.59,64.811,59.288,64.259,58.805,64.132z"/>
					<path fill="#FFFFFF" stroke="#FFFFFF" stroke-width="0.75" stroke-miterlimit="10" d="M58.805,76.438
						c-5.56-1.487-11.879,0.409-12.145,0.487c-0.477,0.149-0.765,0.71-0.635,1.26c0.107,0.456,0.47,0.764,0.869,0.764
						c0.077,0,0.155-0.016,0.233-0.041c0.058-0.018,6.144-1.839,11.268-0.471c0.482,0.126,0.968-0.213,1.081-0.767
						C59.59,77.123,59.288,76.569,58.805,76.438z"/>
					<path fill="#FFFFFF" stroke="#FFFFFF" stroke-width="0.75" stroke-miterlimit="10" d="M58.805,70.283
						c-5.56-1.487-11.879,0.41-12.145,0.486c-0.477,0.145-0.765,0.711-0.635,1.26c0.107,0.459,0.47,0.763,0.869,0.763
						c0.077,0,0.155-0.015,0.233-0.037c0.058-0.018,6.144-1.844,11.268-0.471c0.482,0.126,0.968-0.217,1.081-0.77
						C59.59,70.966,59.288,70.413,58.805,70.283z"/>
				</g>
			</g>
		</g>
	</g>
</g>
<g id="Layer_3" display="none">
	<g display="inline">
		<circle fill="#6BA84D" cx="64" cy="64" r="64"/>
	</g>
	<g display="inline">
		<line fill="none" x1="106.834" y1="19.853" x2="104.51" y2="21.507"/>
	</g>
	<g display="inline">
		<path fill="none" stroke="#FFFFFF" stroke-width="4" stroke-miterlimit="10" d="M116.197,112.704"/>
	</g>
	<g display="inline">
		<g>
			<g>
				<path fill="#FFFFFF" d="M80.478,58.798c-0.251-0.113-0.681-0.206-0.956-0.206H55.34c-0.275,0-0.705,0.092-0.956,0.205
					c0,0-0.553,0.249-0.553,0.813c0,0.566,0.553,0.817,0.553,0.817c0.25,0.113,0.681,0.206,0.956,0.206h24.182
					c0.275,0,0.705-0.093,0.955-0.207c0,0,0.553-0.25,0.553-0.816C81.029,59.047,80.478,58.798,80.478,58.798z"/>
				<path fill="none" stroke="#FFFFFF" stroke-width="2" stroke-miterlimit="10" d="M80.478,58.798
					c-0.251-0.113-0.681-0.206-0.956-0.206H55.34c-0.275,0-0.705,0.092-0.956,0.205c0,0-0.553,0.249-0.553,0.813
					c0,0.566,0.553,0.817,0.553,0.817c0.25,0.113,0.681,0.206,0.956,0.206h24.182c0.275,0,0.705-0.093,0.955-0.207
					c0,0,0.553-0.25,0.553-0.816C81.029,59.047,80.478,58.798,80.478,58.798z"/>
			</g>
			<g>
				<path fill="#FFFFFF" d="M54.384,52.257c0.25,0.113,0.681,0.206,0.956,0.206h9.071c0.275,0,0.705-0.092,0.956-0.205
					c0,0,0.554-0.25,0.554-0.815c0-0.563-0.555-0.814-0.555-0.814c-0.25-0.113-0.68-0.206-0.955-0.206H55.34
					c-0.275,0-0.705,0.093-0.956,0.207l-0.35,0.357c-0.112,0.251-0.112,0.663,0,0.914L54.384,52.257z"/>
				<path fill="none" stroke="#FFFFFF" stroke-width="2" stroke-miterlimit="10" d="M54.384,52.257
					c0.25,0.113,0.681,0.206,0.956,0.206h9.071c0.275,0,0.705-0.092,0.956-0.205c0,0,0.554-0.25,0.554-0.815
					c0-0.563-0.555-0.814-0.555-0.814c-0.25-0.113-0.68-0.206-0.955-0.206H55.34c-0.275,0-0.705,0.093-0.956,0.207l-0.35,0.357
					c-0.112,0.251-0.112,0.663,0,0.914L54.384,52.257z"/>
			</g>
			<g>
				<path fill="#FFFFFF" d="M80.478,66.967c-0.251-0.112-0.681-0.205-0.956-0.205H55.34c-0.275,0-0.705,0.093-0.956,0.205
					c0,0-0.553,0.249-0.553,0.816c0,0.562,0.553,0.813,0.553,0.813c0.25,0.113,0.681,0.206,0.956,0.206h24.182
					c0.275,0,0.705-0.093,0.955-0.206c0,0,0.553-0.251,0.553-0.813C81.029,67.216,80.478,66.967,80.478,66.967z"/>
				<path fill="none" stroke="#FFFFFF" stroke-width="2" stroke-miterlimit="10" d="M80.478,66.967
					c-0.251-0.112-0.681-0.205-0.956-0.205H55.34c-0.275,0-0.705,0.093-0.956,0.205c0,0-0.553,0.249-0.553,0.816
					c0,0.562,0.553,0.813,0.553,0.813c0.25,0.113,0.681,0.206,0.956,0.206h24.182c0.275,0,0.705-0.093,0.955-0.206
					c0,0,0.553-0.251,0.553-0.813C81.029,67.216,80.478,66.967,80.478,66.967z"/>
			</g>
			<g>
				<path fill="#FFFFFF" d="M80.477,75.137c-0.25-0.113-0.68-0.207-0.955-0.207H55.34c-0.275,0-0.705,0.093-0.955,0.207
					c0,0-0.554,0.252-0.554,0.814c0,0.568,0.553,0.818,0.553,0.818c0.25,0.113,0.681,0.206,0.956,0.206h24.182
					c0.275,0,0.705-0.093,0.955-0.206c0,0,0.553-0.25,0.553-0.818C81.029,75.389,80.477,75.137,80.477,75.137z"/>
				<path fill="none" stroke="#FFFFFF" stroke-width="2" stroke-miterlimit="10" d="M80.477,75.137
					c-0.25-0.113-0.68-0.207-0.955-0.207H55.34c-0.275,0-0.705,0.093-0.955,0.207c0,0-0.554,0.252-0.554,0.814
					c0,0.568,0.553,0.818,0.553,0.818c0.25,0.113,0.681,0.206,0.956,0.206h24.182c0.275,0,0.705-0.093,0.955-0.206
					c0,0,0.553-0.25,0.553-0.818C81.029,75.389,80.477,75.137,80.477,75.137z"/>
			</g>
			<g>
				<path fill="#FFFFFF" d="M80.477,83.307c-0.25-0.113-0.68-0.207-0.955-0.207H55.34c-0.275,0-0.705,0.093-0.955,0.207
					c0,0-0.554,0.252-0.554,0.815c0,0.562,0.553,0.812,0.553,0.812c0.25,0.113,0.681,0.206,0.956,0.206h24.182
					c0.275,0,0.705-0.093,0.955-0.206c0,0,0.553-0.25,0.553-0.812C81.029,83.559,80.477,83.307,80.477,83.307z"/>
				<path fill="none" stroke="#FFFFFF" stroke-width="2" stroke-miterlimit="10" d="M80.477,83.307
					c-0.25-0.113-0.68-0.207-0.955-0.207H55.34c-0.275,0-0.705,0.093-0.955,0.207c0,0-0.554,0.252-0.554,0.815
					c0,0.562,0.553,0.812,0.553,0.812c0.25,0.113,0.681,0.206,0.956,0.206h24.182c0.275,0,0.705-0.093,0.955-0.206
					c0,0,0.553-0.25,0.553-0.812C81.029,83.559,80.477,83.307,80.477,83.307z"/>
			</g>
			<g>
				<path fill="#FFFFFF" d="M84.402,48.312c-0.193-0.196-0.352-0.581-0.352-0.856V33.562c0-0.275-0.225-0.5-0.5-0.5H41.238
					c-0.275,0-0.5,0.225-0.5,0.5v55.165c0,0.275,0.225,0.5,0.5,0.5h4.036c0.275,0,0.5,0.225,0.5,0.5v4.107
					c0,0.275,0.225,0.5,0.5,0.5h42.314c0.275,0,0.5-0.225,0.5-0.5V53.561c0-0.275-0.158-0.66-0.352-0.856L84.402,48.312z
					 M74.985,42.153c0-0.275,0.158-0.34,0.352-0.144l8.36,8.478c0.193,0.196,0.51,0.516,0.703,0.712l0.896,0.908
					c0.193,0.196,0.127,0.356-0.148,0.356h-9.662c-0.275,0-0.5-0.225-0.5-0.5V42.153z M42.752,87.184c0,0.001,0-0.223,0-0.498
					V35.603c0-0.275,0.225-0.5,0.5-0.5H81.54c0.275,0,0.5,0.225,0.5,0.5v9.812c0,0.275-0.158,0.34-0.352,0.144l-6.94-7.036
					c-0.193-0.196-0.576-0.356-0.852-0.356H46.274c-0.275,0-0.5,0.225-0.5,0.5v48.016c0,0.275-0.225,0.5-0.5,0.5h-2.021
					C42.978,87.183,42.752,87.184,42.752,87.184z M48.288,92.293c-0.275,0-0.5-0.225-0.5-0.5v-2.066c0-0.275,0-0.725,0-1V40.708
					c0-0.275,0.225-0.5,0.5-0.5h24.185c0.275,0,0.5,0.225,0.5,0.5v13.298c0,0.275,0.225,0.5,0.5,0.5h13.102
					c0.275,0,0.5,0.225,0.5,0.5v36.787c0,0.275-0.225,0.5-0.5,0.5H48.288z"/>
				<path fill="none" stroke="#FFFFFF" stroke-width="2.5" stroke-miterlimit="10" d="M84.402,48.312
					c-0.193-0.196-0.352-0.581-0.352-0.856V33.562c0-0.275-0.225-0.5-0.5-0.5H41.238c-0.275,0-0.5,0.225-0.5,0.5v55.165
					c0,0.275,0.225,0.5,0.5,0.5h4.036c0.275,0,0.5,0.225,0.5,0.5v4.107c0,0.275,0.225,0.5,0.5,0.5h42.314c0.275,0,0.5-0.225,0.5-0.5
					V53.561c0-0.275-0.158-0.66-0.352-0.856L84.402,48.312z M74.985,42.153c0-0.275,0.158-0.34,0.352-0.144l8.36,8.478
					c0.193,0.196,0.51,0.516,0.703,0.712l0.896,0.908c0.193,0.196,0.127,0.356-0.148,0.356h-9.662c-0.275,0-0.5-0.225-0.5-0.5
					V42.153z M42.752,87.184c0,0.001,0-0.223,0-0.498V35.603c0-0.275,0.225-0.5,0.5-0.5H81.54c0.275,0,0.5,0.225,0.5,0.5v9.812
					c0,0.275-0.158,0.34-0.352,0.144l-6.94-7.036c-0.193-0.196-0.576-0.356-0.852-0.356H46.274c-0.275,0-0.5,0.225-0.5,0.5v48.016
					c0,0.275-0.225,0.5-0.5,0.5h-2.021C42.978,87.183,42.752,87.184,42.752,87.184z M48.288,92.293c-0.275,0-0.5-0.225-0.5-0.5
					v-2.066c0-0.275,0-0.725,0-1V40.708c0-0.275,0.225-0.5,0.5-0.5h24.185c0.275,0,0.5,0.225,0.5,0.5v13.298
					c0,0.275,0.225,0.5,0.5,0.5h13.102c0.275,0,0.5,0.225,0.5,0.5v36.787c0,0.275-0.225,0.5-0.5,0.5H48.288z"/>
			</g>
		</g>
	</g>
</g>
<g id="Layer_4" display="none">
	<path display="inline" fill="#599D2B" d="M128.028,64.064c0-35.348-28.6-64.002-63.877-64.002
		c-35.276,0-64.123,29.786-64.123,65.133c0,35.343,28.847,62.867,64.123,62.867C99.429,128.063,128.028,99.407,128.028,64.064"/>
	<g display="inline">
		<path fill="#FFFFFF" d="M81.207,62.405l0.492,8.73c0.073,1.271-0.68,2.448-2.265,3.533c-1.586,1.084-3.748,1.948-6.495,2.586
			c-2.741,0.635-5.717,0.954-8.924,0.954c-3.202,0-6.177-0.319-8.925-0.954c-2.741-0.638-4.909-1.495-6.493-2.586
			c-1.586-1.085-2.339-2.268-2.268-3.533l0.493-8.73l15.86,5.002c0.402,0.129,0.845,0.193,1.325,0.193
			c0.48,0,0.923-0.064,1.326-0.193L81.207,62.405z M95.853,53.456c0,0.422-0.201,0.708-0.61,0.857l-30.941,9.722
			c-0.072,0.021-0.169,0.026-0.273,0.026c-0.11,0-0.201-0.006-0.272-0.026l-18.01-5.688c-0.792,0.623-1.449,1.649-1.961,3.078
			c-0.513,1.429-0.826,3.072-0.941,4.93c1.162,0.663,1.74,1.668,1.74,3.013c0,1.274-0.533,2.255-1.604,2.956l1.604,11.963
			c0.039,0.261-0.04,0.488-0.222,0.689c-0.168,0.2-0.389,0.305-0.662,0.305h-5.307c-0.273,0-0.494-0.104-0.662-0.305
			c-0.182-0.201-0.26-0.436-0.221-0.689l1.604-11.963c-1.065-0.701-1.604-1.689-1.604-2.956c0-1.345,0.597-2.364,1.799-3.064
			c0.201-3.812,1.104-6.853,2.708-9.119l-9.203-2.877c-0.402-0.149-0.61-0.435-0.61-0.856c0-0.423,0.201-0.709,0.61-0.857
			l30.94-9.724c0.072-0.019,0.17-0.024,0.272-0.024c0.111,0,0.202,0.006,0.273,0.024l30.941,9.724
			C95.651,52.748,95.853,53.034,95.853,53.456L95.853,53.456z"/>
	</g>
</g>
<g id="Layer_5" display="none">
	<g display="inline">
		<path fill="#683C85" d="M64.035,0c-35.346,0-64,28.658-64,64.007c0,35.335,28.654,63.994,64,63.994c35.34,0,64-28.658,64-63.994
			C128.034,28.657,99.375,0,64.035,0z"/>
	</g>
	<path display="inline" fill="#FFFFFF" d="M32.104,87.947V40.052h2.245v47.896H32.104z M35.454,87.916V40.052h1.14v47.864H35.454z
		 M38.838,87.916V40.052h1.105v47.864H38.838z M44.434,87.916V40.052h1.105v47.864H44.434z M48.924,87.916V40.052h2.209v47.864
		H48.924z M54.52,87.916V40.052h1.104v47.864H54.52z M56.764,87.916V40.052h1.104v47.864H56.764z M59.009,87.916V40.052h1.105
		v47.864H59.009z M63.463,87.916V40.052h2.248v47.864H63.463z M69.06,87.916V40.052h2.244v47.864H69.06z M73.55,87.916V40.052h2.245
		v47.864H73.55z M78.039,87.916V40.052h2.246v47.864H78.039z M81.392,87.916V40.052h2.243v47.864H81.392z M87.021,87.916V40.052
		h3.351v47.864H87.021z M91.476,87.916V40.052h1.141v47.864H91.476L91.476,87.916z M93.719,87.947V40.052h2.247v47.896H93.719z"/>
</g>
<g id="Layer_6_1_" display="none">
	<g display="inline">
		<g>
			<path fill="#F3961B" d="M64.001-0.288c-35.343,0-63.999,28.656-63.999,64.005c0,35.345,28.656,63.996,63.999,63.996
				c35.341,0,64.001-28.652,64.001-63.996C128.002,28.368,99.342-0.288,64.001-0.288z"/>
		</g>
		<g>
			<g>
				<path fill="none" stroke="#FDFDFC" stroke-width="5" stroke-miterlimit="10" d="M93.771,74.958c0,4.71-2.865,8.544-6.384,8.544
					H40.889c-3.526,0-6.388-3.834-6.388-8.544v-32.25c0-4.706,2.861-8.541,6.388-8.541h46.498c3.519,0,6.384,3.834,6.384,8.541
					V74.958z"/>
				<path fill="none" stroke="#FDFDFC" stroke-width="5" stroke-miterlimit="10" d="M65.516,91.155c0.062,0,0.099-0.106,0.099-0.245
					l-0.006-5.543c0-0.139-0.044-0.244-0.093-0.244l0,0c-0.054,0-0.098,0.105-0.098,0.244l0.007,5.543
					C65.425,91.049,65.467,91.155,65.516,91.155L65.516,91.155z"/>
				<path fill="none" stroke="#FDFDFC" stroke-width="5" stroke-miterlimit="10" d="M54.907,93.209c0,0.139,0.381,0.26,0.875,0.245
					l19.664-0.106c0.483,0,0.881-0.124,0.881-0.266l0,0c-0.005-0.135-0.397-0.238-0.889-0.238l-19.665,0.104
					C55.288,92.947,54.907,93.085,54.907,93.209L54.907,93.209z"/>
			</g>
			<g>
				<g>
					<g>
						<path fill="none" stroke="#FFFFFF" stroke-width="3" stroke-miterlimit="10" d="M62.077,46.944c0-0.275,0.225-0.5,0.5-0.5
							h16.208c0.275,0,0.5,0.225,0.5,0.5v3.457c0,0.275-0.225,0.5-0.5,0.5H62.577c-0.275,0-0.5-0.225-0.5-0.5V46.944z"/>
					</g>
					<g>
						<path fill="#FFFFFF" d="M61.9,47.166c0-0.275,0.225-0.5,0.5-0.5h8.505c0.275,0,0.5,0.225,0.5,0.5v3.01
							c0,0.275-0.225,0.5-0.5,0.5H62.4c-0.275,0-0.5-0.225-0.5-0.5V47.166z"/>
						<path fill="none" stroke="#FFFFFF" stroke-width="3" stroke-miterlimit="10" d="M61.9,47.166c0-0.275,0.225-0.5,0.5-0.5h8.505
							c0.275,0,0.5,0.225,0.5,0.5v3.01c0,0.275-0.225,0.5-0.5,0.5H62.4c-0.275,0-0.5-0.225-0.5-0.5V47.166z"/>
					</g>
				</g>
			</g>
			<g>
				<g>
					<g>
						<path fill="none" stroke="#FFFFFF" stroke-width="3" stroke-miterlimit="10" d="M51.552,57.106c0-0.275,0.225-0.5,0.5-0.5
							h26.732c0.275,0,0.5,0.225,0.5,0.5v3.457c0,0.275-0.225,0.5-0.5,0.5H52.052c-0.275,0-0.5-0.225-0.5-0.5V57.106z"/>
					</g>
					<g>
						<path fill="#FFFFFF" d="M51.552,57.552c0-0.275,0.225-0.5,0.5-0.5h2.456c0.275,0,0.5,0.225,0.5,0.5v3.011
							c0,0.275-0.225,0.5-0.5,0.5h-2.456c-0.275,0-0.5-0.225-0.5-0.5V57.552z"/>
						<path fill="none" stroke="#FFFFFF" stroke-width="3" stroke-miterlimit="10" d="M51.552,57.552c0-0.275,0.225-0.5,0.5-0.5
							h2.456c0.275,0,0.5,0.225,0.5,0.5v3.011c0,0.275-0.225,0.5-0.5,0.5h-2.456c-0.275,0-0.5-0.225-0.5-0.5V57.552z"/>
					</g>
				</g>
			</g>
			<g>
				<g>
					<g>
						<path fill="none" stroke="#FFFFFF" stroke-width="3" stroke-miterlimit="10" d="M54.154,66.92c0-0.275,0.225-0.5,0.5-0.5
							h23.997c0.275,0,0.5,0.225,0.5,0.5v3.455c0,0.275-0.225,0.5-0.5,0.5H54.654c-0.275,0-0.5-0.225-0.5-0.5V66.92z"/>
					</g>
					<g>
						<path fill="#FFFFFF" d="M54.875,67.143c0-0.275,0.225-0.5,0.5-0.5h8.506c0.275,0,0.5,0.225,0.5,0.5v3.01
							c0,0.275-0.225,0.5-0.5,0.5h-8.506c-0.275,0-0.5-0.225-0.5-0.5V67.143z"/>
						<path fill="none" stroke="#FFFFFF" stroke-width="3" stroke-miterlimit="10" d="M54.875,67.143c0-0.275,0.225-0.5,0.5-0.5
							h8.506c0.275,0,0.5,0.225,0.5,0.5v3.01c0,0.275-0.225,0.5-0.5,0.5h-8.506c-0.275,0-0.5-0.225-0.5-0.5V67.143z"/>
					</g>
				</g>
			</g>
		</g>
	</g>
</g>
<g id="Layer_7" display="none">
	<g display="inline">
		<path fill="#C94E8A" d="M64,0C28.655,0,0,28.656,0,64.007C0,99.344,28.654,128,64,128c35.341,0,64-28.656,64-63.993
			C127.999,28.656,99.34,0,64,0z"/>
	</g>
	<g display="inline">
		<g>
			<path fill="none" stroke="#FFFFFF" stroke-width="6" stroke-miterlimit="10" d="M42.14,35.525c0-0.055,0.045-0.1,0.1-0.1h43.526
				c0.055,0,0.1,0.045,0.1,0.1v57.511c0,0.055-0.045,0.1-0.1,0.1H42.24c-0.055,0-0.1-0.045-0.1-0.1V35.525z"/>
		</g>
		<g>
			<path fill="none" stroke="#FFFFFF" stroke-width="4" stroke-miterlimit="10" d="M50.166,43.013c0-0.275,0.225-0.5,0.5-0.5h0.817
				c0.275,0,0.5,0.225,0.5,0.5v0.574c0,0.275-0.225,0.5-0.5,0.5h-0.817c-0.275,0-0.5-0.225-0.5-0.5V43.013z"/>
		</g>
		<g>
			<path fill="none" stroke="#FFFFFF" stroke-width="4" stroke-miterlimit="10" d="M58.697,43.013c0-0.275,0.225-0.5,0.5-0.5h0.812
				c0.275,0,0.5,0.225,0.5,0.5v0.574c0,0.275-0.225,0.5-0.5,0.5h-0.812c-0.275,0-0.5-0.225-0.5-0.5V43.013z"/>
		</g>
		<g>
			<path fill="none" stroke="#FFFFFF" stroke-width="4" stroke-miterlimit="10" d="M67.211,43.013c0-0.275,0.225-0.5,0.5-0.5h0.814
				c0.275,0,0.5,0.225,0.5,0.5v0.574c0,0.275-0.225,0.5-0.5,0.5h-0.814c-0.275,0-0.5-0.225-0.5-0.5V43.013z"/>
		</g>
		<g>
			<path fill="none" stroke="#FFFFFF" stroke-width="4" stroke-miterlimit="10" d="M75.943,43.013c0-0.275,0.225-0.5,0.5-0.5h0.824
				c0.275,0,0.5,0.225,0.5,0.5v0.574c0,0.275-0.225,0.5-0.5,0.5h-0.824c-0.275,0-0.5-0.225-0.5-0.5V43.013z"/>
		</g>
		<g>
			<path fill="none" stroke="#FFFFFF" stroke-width="4" stroke-miterlimit="10" d="M50.404,51.613c0-0.275,0.225-0.5,0.5-0.5h0.824
				c0.275,0,0.5,0.225,0.5,0.5v0.577c0,0.275-0.225,0.5-0.5,0.5h-0.824c-0.275,0-0.5-0.225-0.5-0.5V51.613z"/>
		</g>
		<g>
			<path fill="none" stroke="#FFFFFF" stroke-width="4" stroke-miterlimit="10" d="M58.697,51.613c0-0.275,0.225-0.5,0.5-0.5h0.812
				c0.275,0,0.5,0.225,0.5,0.5v0.577c0,0.275-0.225,0.5-0.5,0.5h-0.812c-0.275,0-0.5-0.225-0.5-0.5V51.613z"/>
		</g>
		<g>
			<path fill="none" stroke="#FFFFFF" stroke-width="4" stroke-miterlimit="10" d="M67.211,51.613c0-0.275,0.225-0.5,0.5-0.5h0.814
				c0.275,0,0.5,0.225,0.5,0.5v0.577c0,0.275-0.225,0.5-0.5,0.5h-0.814c-0.275,0-0.5-0.225-0.5-0.5V51.613z"/>
		</g>
		<g>
			<path fill="none" stroke="#FFFFFF" stroke-width="4" stroke-miterlimit="10" d="M75.943,51.613c0-0.275,0.225-0.5,0.5-0.5h0.824
				c0.275,0,0.5,0.225,0.5,0.5v0.577c0,0.275-0.225,0.5-0.5,0.5h-0.824c-0.275,0-0.5-0.225-0.5-0.5V51.613z"/>
		</g>
		<g>
			<path fill="none" stroke="#FFFFFF" stroke-width="4" stroke-miterlimit="10" d="M50.404,59.885c0-0.275,0.225-0.5,0.5-0.5h0.824
				c0.275,0,0.5,0.225,0.5,0.5v0.579c0,0.275-0.225,0.5-0.5,0.5h-0.824c-0.275,0-0.5-0.225-0.5-0.5V59.885z"/>
		</g>
		<g>
			<path fill="none" stroke="#FFFFFF" stroke-width="4" stroke-miterlimit="10" d="M58.697,59.885c0-0.275,0.225-0.5,0.5-0.5h0.812
				c0.275,0,0.5,0.225,0.5,0.5v0.579c0,0.275-0.225,0.5-0.5,0.5h-0.812c-0.275,0-0.5-0.225-0.5-0.5V59.885z"/>
		</g>
		<g>
			<path fill="none" stroke="#FFFFFF" stroke-width="4" stroke-miterlimit="10" d="M67.211,59.885c0-0.275,0.225-0.5,0.5-0.5h0.814
				c0.275,0,0.5,0.225,0.5,0.5v0.579c0,0.275-0.225,0.5-0.5,0.5h-0.814c-0.275,0-0.5-0.225-0.5-0.5V59.885z"/>
		</g>
		<g>
			<path fill="none" stroke="#FFFFFF" stroke-width="4" stroke-miterlimit="10" d="M75.943,59.885c0-0.275,0.225-0.5,0.5-0.5h0.824
				c0.275,0,0.5,0.225,0.5,0.5v0.579c0,0.275-0.225,0.5-0.5,0.5h-0.824c-0.275,0-0.5-0.225-0.5-0.5V59.885z"/>
		</g>
		<g>
			<path fill="none" stroke="#FFFFFF" stroke-width="4" stroke-miterlimit="10" d="M50.404,68.939c0-0.275,0.225-0.5,0.5-0.5h0.824
				c0.275,0,0.5,0.225,0.5,0.5v0.58c0,0.275-0.225,0.5-0.5,0.5h-0.824c-0.275,0-0.5-0.225-0.5-0.5V68.939z"/>
		</g>
		<g>
			<path fill="none" stroke="#FFFFFF" stroke-width="4" stroke-miterlimit="10" d="M58.697,68.939c0-0.275,0.225-0.5,0.5-0.5h0.812
				c0.275,0,0.5,0.225,0.5,0.5v0.58c0,0.275-0.225,0.5-0.5,0.5h-0.812c-0.275,0-0.5-0.225-0.5-0.5V68.939z"/>
		</g>
		<g>
			<path fill="none" stroke="#FFFFFF" stroke-width="4" stroke-miterlimit="10" d="M67.211,68.939c0-0.275,0.225-0.5,0.5-0.5h0.814
				c0.275,0,0.5,0.225,0.5,0.5v0.58c0,0.275-0.225,0.5-0.5,0.5h-0.814c-0.275,0-0.5-0.225-0.5-0.5V68.939z"/>
		</g>
		<g>
			<path fill="none" stroke="#FFFFFF" stroke-width="4" stroke-miterlimit="10" d="M75.943,68.939c0-0.275,0.225-0.5,0.5-0.5h0.824
				c0.275,0,0.5,0.225,0.5,0.5v0.58c0,0.275-0.225,0.5-0.5,0.5h-0.824c-0.275,0-0.5-0.225-0.5-0.5V68.939z"/>
		</g>
		<g>
			<path fill="none" stroke="#FFFFFF" stroke-width="4" stroke-miterlimit="10" d="M50.404,77.635c0-0.275,0.225-0.5,0.5-0.5h0.824
				c0.275,0,0.5,0.225,0.5,0.5v0.582c0,0.275-0.225,0.5-0.5,0.5h-0.824c-0.275,0-0.5-0.225-0.5-0.5V77.635z"/>
		</g>
		<g>
			<path fill="#FFFFFF" d="M58.475,81.555c0-0.055,0.045-0.1,0.1-0.1h9.593c0.055,0,0.1,0.045,0.1,0.1v10.949
				c0,0.055-0.045,0.1-0.1,0.1h-9.593c-0.055,0-0.1-0.045-0.1-0.1V81.555z"/>
			<path fill="none" stroke="#FFFFFF" stroke-width="4" stroke-miterlimit="10" d="M58.475,81.555c0-0.055,0.045-0.1,0.1-0.1h9.593
				c0.055,0,0.1,0.045,0.1,0.1v10.949c0,0.055-0.045,0.1-0.1,0.1h-9.593c-0.055,0-0.1-0.045-0.1-0.1V81.555z"/>
		</g>
		<g>
			<path fill="none" stroke="#FFFFFF" stroke-width="4" stroke-miterlimit="10" d="M75.943,77.635c0-0.275,0.225-0.5,0.5-0.5h0.824
				c0.275,0,0.5,0.225,0.5,0.5v0.582c0,0.275-0.225,0.5-0.5,0.5h-0.824c-0.275,0-0.5-0.225-0.5-0.5V77.635z"/>
		</g>
	</g>
</g>
<g id="Layer_8" display="none">
	<g display="inline">
		<path fill="#F3961B" d="M64.127,0c-35.34,0-64,28.654-64,64.004c0,35.339,28.66,63.995,64,63.995c35.345,0,64-28.656,64-63.995
			C128.127,28.655,99.472,0,64.127,0z"/>
		<path fill="#FFFFFF" stroke="#FFFFFF" stroke-width="4" stroke-miterlimit="10" d="M87.607,41.406
			c-6.763-5.727-17.202-4.867-23.667,1.767c-6.467-6.634-16.908-7.506-23.666-1.767c-8.792,7.459-7.506,19.62-1.241,26.067
			l20.51,21.058c1.169,1.202,2.734,1.874,4.396,1.874c1.668,0,3.229-0.66,4.397-1.861l20.509-21.059
			C95.1,61.038,96.411,48.877,87.607,41.406z M84.848,63.502L73.981,74.658l-9.644,9.901c-0.282,0.282-0.514,0.282-0.796,0
			L43.034,63.502c-4.269-4.385-5.135-12.682,0.852-17.76c4.551-3.854,11.565-3.276,15.962,1.237l4.092,4.208l4.092-4.208
			c4.417-4.536,11.436-5.09,15.958-1.249C89.969,50.81,89.078,59.152,84.848,63.502z"/>
	</g>
</g>
<g id="Layer_9" display="none">
	<path display="inline" fill="#52A9DF" d="M128.199,63.836c0-35.348-28.657-64.003-64.001-64.003c-35.342,0-64,28.655-64,64.003
		c0,35.341,28.657,63.998,64,63.998C99.542,127.834,128.199,99.178,128.199,63.836"/>
	<g display="inline">
		<path fill="#FFFFFF" stroke="#FFFFFF" stroke-width="6" stroke-miterlimit="10" d="M86.576,90.191
			c0,2.025-1.432,3.662-3.195,3.662H44.62c-1.768,0-3.198-1.637-3.198-3.662V37.81c0-2.029,1.43-3.664,3.198-3.664h38.761
			c1.764,0,3.195,1.635,3.195,3.664V90.191z"/>
		<path fill="#52A9DF" stroke="#FFFFFF" stroke-width="2" stroke-miterlimit="10" d="M51.181,59.277c0,2.216-1.77,4.013-3.949,4.013
			c-2.183,0-3.947-1.796-3.947-4.013c0-2.218,1.764-4.018,3.947-4.018C49.412,55.26,51.181,57.06,51.181,59.277z"/>
		<path fill="#52A9DF" stroke="#FFFFFF" stroke-width="4" stroke-miterlimit="10" d="M86.173,50.586
			c0,1.264-1.415,2.288-3.165,2.288H44.985c-1.747,0-3.162-1.025-3.162-2.288V37.654c0-1.264,1.414-2.29,3.162-2.29h38.021
			c1.752,0,3.167,1.027,3.167,2.29V50.586L86.173,50.586z"/>
		<path fill="#52A9DF" stroke="#FFFFFF" stroke-width="2" stroke-miterlimit="10" d="M62.211,59.277
			c0,2.216-1.771,4.013-3.951,4.013c-2.18,0-3.943-1.796-3.943-4.013c0-2.218,1.764-4.018,3.943-4.018
			C60.441,55.26,62.211,57.06,62.211,59.277z"/>
		<path fill="#52A9DF" stroke="#FFFFFF" stroke-width="2" stroke-miterlimit="10" d="M73.623,59.277
			c0,2.216-1.769,4.013-3.944,4.013c-2.182,0-3.952-1.796-3.952-4.013c0-2.218,1.771-4.018,3.952-4.018
			C71.853,55.26,73.623,57.06,73.623,59.277z"/>
		<path fill="#52A9DF" stroke="#FFFFFF" stroke-width="2" stroke-miterlimit="10" d="M85.087,59.277
			c0,2.216-1.769,4.013-3.943,4.013c-2.188,0-3.954-1.796-3.954-4.013c0-2.218,1.766-4.018,3.954-4.018
			C83.318,55.26,85.087,57.06,85.087,59.277z"/>
		<path fill="#52A9DF" stroke="#FFFFFF" stroke-width="2" stroke-miterlimit="10" d="M51.181,72.104c0,2.217-1.77,4.014-3.949,4.014
			c-2.183,0-3.947-1.797-3.947-4.014c0-2.221,1.764-4.014,3.947-4.014C49.412,68.09,51.181,69.883,51.181,72.104z"/>
		<path fill="#52A9DF" stroke="#FFFFFF" stroke-width="2" stroke-miterlimit="10" d="M73.623,84.348
			c0,2.217-1.769,4.016-3.944,4.016c-2.182,0-3.952-1.799-3.952-4.016c0-2.221,1.771-4.012,3.952-4.012
			C71.853,80.336,73.623,82.127,73.623,84.348z"/>
		<path fill="#52A9DF" stroke="#FFFFFF" stroke-width="2" stroke-miterlimit="10" d="M62.211,72.104
			c0,2.217-1.771,4.014-3.951,4.014c-2.18,0-3.943-1.797-3.943-4.014c0-2.221,1.764-4.014,3.943-4.014
			C60.441,68.09,62.211,69.883,62.211,72.104z"/>
		<path fill="#52A9DF" stroke="#FFFFFF" stroke-width="2" stroke-miterlimit="10" d="M73.623,72.104
			c0,2.217-1.769,4.014-3.944,4.014c-2.182,0-3.952-1.797-3.952-4.014c0-2.221,1.771-4.014,3.952-4.014
			C71.853,68.09,73.623,69.883,73.623,72.104z"/>
		<path fill="#52A9DF" stroke="#FFFFFF" stroke-width="2" stroke-miterlimit="10" d="M51.181,84.348c0,2.217-1.77,4.016-3.949,4.016
			c-2.183,0-3.947-1.799-3.947-4.016c0-2.221,1.764-4.012,3.947-4.012C49.412,80.336,51.181,82.127,51.181,84.348z"/>
		<path fill="#52A9DF" stroke="#FFFFFF" stroke-width="2" stroke-miterlimit="10" d="M62.211,84.348
			c0,2.217-1.771,4.016-3.951,4.016c-2.18,0-3.943-1.799-3.943-4.016c0-2.221,1.764-4.012,3.943-4.012
			C60.441,80.336,62.211,82.127,62.211,84.348z"/>
	</g>
	<path display="inline" fill="#52A9DF" d="M83.917,83.83c0,1.943-1.241,3.512-2.778,3.512l0,0c-1.539,0-2.78-1.568-2.78-3.512v-10.9
		c0-1.939,1.241-3.508,2.78-3.508l0,0c1.537,0,2.778,1.568,2.778,3.508V83.83z"/>
	<line display="inline" fill="none" x1="42.625" y1="57.547" x2="86.172" y2="57.547"/>
</g>
<g id="Layer_10" display="none">
	<g display="inline">
		<g>
			<path fill="#FFFFFF" stroke="#1D1D1B" stroke-width="0.25" stroke-miterlimit="10" d="M53.569,67.885"/>
			<path fill="#FFFFFF" stroke="#FFFFFF" stroke-width="0.25" stroke-linecap="round" stroke-linejoin="round" d="M52.126,54.261"/>
			<path fill="#F3961B" d="M64.001,0C28.656,0,0,28.655,0,64.001C0,99.34,28.654,128,64.001,128C99.346,128,128,99.342,128,64.001
				C128,28.655,99.346,0,64.001,0z"/>
			<path fill="#FFFFFF" stroke="#FFFFFF" stroke-width="0.25" stroke-miterlimit="10" d="M71.405,69.383"/>
		</g>
		<g>
			<g>
				<g>
					<path fill="#FFFFFF" d="M32.728,90.519c-0.055,0-0.1,0.045-0.1,0.1v4.717c0,0.055,0.045,0.1,0.1,0.1l62.555,0.202
						c0.055,0,0.1-0.045,0.1-0.1v-4.919c0-0.055-0.045-0.1-0.1-0.1H32.728z"/>
					<path fill="none" stroke="#FFFFFF" stroke-width="0.25" stroke-miterlimit="10" d="M32.728,90.519c-0.055,0-0.1,0.045-0.1,0.1
						v4.717c0,0.055,0.045,0.1,0.1,0.1l62.555,0.202c0.055,0,0.1-0.045,0.1-0.1v-4.919c0-0.055-0.045-0.1-0.1-0.1H32.728z"/>
				</g>
				<g>
					<path fill="#FFFFFF" d="M87.034,83.062c-0.055,0-0.1-0.045-0.1-0.1l0.058-27.051c0-0.055-0.045-0.1-0.1-0.1H78.92
						c-0.055,0-0.1,0.045-0.101,0.1l-0.16,27.258c-0.001,0.055-0.046,0.1-0.101,0.1l-3.924-0.019c-0.055,0-0.1-0.045-0.1-0.1V55.807
						c0-0.055-0.045-0.1-0.1-0.099l-8.244,0.102c-0.055,0.001-0.1,0.046-0.1,0.102l-0.019,27.324c0,0.055-0.045,0.1-0.1,0.1h-3.986
						c-0.055,0-0.1-0.045-0.1-0.1l0.061-27.324c0-0.055-0.045-0.1-0.1-0.1h-8.181c-0.055,0-0.1,0.045-0.1,0.1l-0.04,26.313
						c0,0.055,0.001,0.145,0.002,0.199l0.035,1.312c0.001,0.055-0.042,0.1-0.098,0.099l-3.99-0.029
						c-0.055-0.001-0.1-0.046-0.1-0.101l0.016-2.119c0-0.055,0.001-0.145,0-0.199l-0.08-25.193c0-0.055-0.045-0.1-0.101-0.1h-8.17
						c-0.055,0-0.1,0.045-0.1,0.1l-0.025,27.354c0,0.055-0.045,0.099-0.1,0.097l-1.115-0.037c-0.055-0.002-0.145-0.003-0.2-0.003
						h-2.649c-0.055,0-0.1,0.045-0.1,0.1v4.24c0,0.055,0.045,0.1,0.1,0.1h54.298c0.055,0,0.1-0.045,0.1-0.1v-4.782
						c0-0.055-0.045-0.1-0.1-0.1H87.034z"/>
					<path fill="none" stroke="#FFFFFF" stroke-width="0.25" stroke-miterlimit="10" d="M87.034,83.062c-0.055,0-0.1-0.045-0.1-0.1
						l0.058-27.051c0-0.055-0.045-0.1-0.1-0.1H78.92c-0.055,0-0.1,0.045-0.101,0.1l-0.16,27.258c-0.001,0.055-0.046,0.1-0.101,0.1
						l-3.924-0.019c-0.055,0-0.1-0.045-0.1-0.1V55.807c0-0.055-0.045-0.1-0.1-0.099l-8.244,0.102c-0.055,0.001-0.1,0.046-0.1,0.102
						l-0.019,27.324c0,0.055-0.045,0.1-0.1,0.1h-3.986c-0.055,0-0.1-0.045-0.1-0.1l0.061-27.324c0-0.055-0.045-0.1-0.1-0.1h-8.181
						c-0.055,0-0.1,0.045-0.1,0.1l-0.04,26.313c0,0.055,0.001,0.145,0.002,0.199l0.035,1.312c0.001,0.055-0.042,0.1-0.098,0.099
						l-3.99-0.029c-0.055-0.001-0.1-0.046-0.1-0.101l0.016-2.119c0-0.055,0.001-0.145,0-0.199l-0.08-25.193
						c0-0.055-0.045-0.1-0.101-0.1h-8.17c-0.055,0-0.1,0.045-0.1,0.1l-0.025,27.354c0,0.055-0.045,0.099-0.1,0.097l-1.115-0.037
						c-0.055-0.002-0.145-0.003-0.2-0.003h-2.649c-0.055,0-0.1,0.045-0.1,0.1v4.24c0,0.055,0.045,0.1,0.1,0.1h54.298
						c0.055,0,0.1-0.045,0.1-0.1v-4.782c0-0.055-0.045-0.1-0.1-0.1H87.034z"/>
				</g>
				<g>
					<path fill="#FFFFFF" d="M32.486,45.887c0-0.055,0.042-0.118,0.092-0.14l31.459-13.72c0.051-0.022,0.133-0.022,0.184,0
						l31.202,13.72c0.051,0.022,0.092,0.085,0.092,0.14v4.938c0,0.055-0.045,0.1-0.1,0.1h-3.628c-0.055,0-0.1,0.045-0.1,0.1v2.473
						c0,0.055-0.045,0.1-0.1,0.1H36.562c-0.055,0-0.1-0.045-0.101-0.1l-0.011-2.473c0-0.055-0.045-0.1-0.101-0.1h-3.764
						c-0.055,0-0.1-0.045-0.1-0.1V45.887z"/>
					<path fill="none" stroke="#FFFFFF" stroke-width="0.25" stroke-miterlimit="10" d="M32.486,45.887
						c0-0.055,0.042-0.118,0.092-0.14l31.459-13.72c0.051-0.022,0.133-0.022,0.184,0l31.202,13.72
						c0.051,0.022,0.092,0.085,0.092,0.14v4.938c0,0.055-0.045,0.1-0.1,0.1h-3.628c-0.055,0-0.1,0.045-0.1,0.1v2.473
						c0,0.055-0.045,0.1-0.1,0.1H36.562c-0.055,0-0.1-0.045-0.101-0.1l-0.011-2.473c0-0.055-0.045-0.1-0.101-0.1h-3.764
						c-0.055,0-0.1-0.045-0.1-0.1V45.887z"/>
				</g>
			</g>
		</g>
	</g>
</g>
<g id="Layer_11" display="none">
	<g display="inline">
		<path fill="#D7645A" d="M64,0C28.654,0,0,28.658,0,64.005C0,99.346,28.654,128,64,128c35.342,0,64-28.654,64-63.995
			C128,28.658,99.342,0,64,0z"/>
	</g>
	<path display="inline" fill="#FFFFFF" d="M89.371,63.992l5.742-5.622c1.713-1.621,0.914-4.501-1.331-5.037l-7.822-1.998
		l2.205-7.744c0.622-2.227-1.479-4.33-3.704-3.706l-7.742,2.207l-1.996-7.827c-0.527-2.21-3.441-3.017-5.037-1.332l-5.617,5.787
		l-5.618-5.787c-1.577-1.668-4.501-0.903-5.036,1.332l-1.995,7.827l-7.743-2.207c-2.227-0.624-4.326,1.479-3.703,3.707l2.205,7.743
		l-7.823,1.998c-2.246,0.537-3.042,3.417-1.332,5.037l5.743,5.622l-5.743,5.619c-1.711,1.62-0.913,4.501,1.332,5.037l7.823,1.997
		l-2.205,7.741c-0.623,2.229,1.477,4.332,3.703,3.707l7.742-2.206l1.996,7.827c0.556,2.319,3.459,3,5.035,1.333l5.619-5.745
		l5.617,5.745c1.562,1.684,4.494,0.936,5.037-1.333l1.996-7.827l7.742,2.206c2.226,0.625,4.325-1.478,3.704-3.707l-2.205-7.741
		l7.822-1.997c2.245-0.536,3.043-3.419,1.331-5.037L89.371,63.992L89.371,63.992z"/>
</g>
<g id="Layer_13" display="none">
	<path display="inline" fill="#F3961B" d="M64.375,0.132c-35.137,0-63.629,28.487-63.629,63.628
		c0,35.138,28.492,63.626,63.629,63.626C99.513,127.386,128,98.899,128,63.76C128,28.619,99.513,0.132,64.375,0.132z"/>
	<path display="inline" fill="#FFFFFF" d="M93.643,40.978H44.859c-2.312,0-4.284,1.484-5.017,3.548h-4.74
		c-1.47,0-2.661,1.192-2.661,2.661v30.157c0,3.43,2.779,6.209,6.208,6.209h54.992c1.471,0,2.662-1.191,2.662-2.661V43.64
		C96.305,42.17,95.113,40.978,93.643,40.978z M37.764,77.344V49.848h1.774v27.496c0,0.49-0.398,0.888-0.887,0.888
		C38.162,78.231,37.764,77.834,37.764,77.344z M90.982,78.231H44.795c0.042-0.291,0.064-0.586,0.064-0.888V46.3h46.123V78.231z
		 M51.513,64.927H66.59c0.734,0,1.33-0.596,1.33-1.331V52.952c0-0.735-0.596-1.33-1.33-1.33H51.513c-0.735,0-1.331,0.595-1.331,1.33
		v10.645C50.182,64.331,50.777,64.927,51.513,64.927z M54.616,56.057h8.87v4.434h-8.87V56.057z M50.182,71.578v-2.66
		c0-0.736,0.596-1.331,1.331-1.331H66.59c0.734,0,1.33,0.595,1.33,1.331v2.66c0,0.735-0.596,1.331-1.33,1.331H51.513
		C50.777,72.909,50.182,72.313,50.182,71.578z M71.471,71.578v-2.66c0-0.736,0.594-1.331,1.33-1.331H84.33
		c0.734,0,1.33,0.595,1.33,1.331v2.66c0,0.735-0.596,1.331-1.33,1.331H72.801C72.064,72.909,71.471,72.313,71.471,71.578z
		 M71.471,55.614v-2.663c0-0.735,0.594-1.33,1.33-1.33H84.33c0.734,0,1.33,0.595,1.33,1.33v2.663c0,0.734-0.596,1.33-1.33,1.33
		H72.801C72.064,56.944,71.471,56.348,71.471,55.614z M71.471,63.596v-2.661c0-0.735,0.594-1.331,1.33-1.331H84.33
		c0.734,0,1.33,0.596,1.33,1.331v2.661c0,0.735-0.596,1.331-1.33,1.331H72.801C72.064,64.927,71.471,64.331,71.471,63.596z"/>
</g>
<g id="Layer_14" display="none">
	<polygon display="inline" fill="#3870B5" stroke="#FFFFFF" stroke-width="0.25" stroke-miterlimit="10" points="56.85,31.95 
		56.85,31.95 56.85,31.95 56.85,31.95 56.85,31.95 56.85,31.95 	"/>
	<g display="inline">
		<path fill="#4A76AA" d="M63.999,0C28.657,0,0,28.655,0,64.003C0,99.346,28.657,128,63.999,128C99.345,128,128,99.346,128,64.003
			C128,28.655,99.344,0,63.999,0z"/>
	</g>
	<path display="inline" fill="#4A76AA" d="M65.163,47.53"/>
	<g display="inline">
		<path fill="#FFFFFF" stroke="#FFFFFF" stroke-width="2" stroke-miterlimit="10" d="M92.239,62.952l-11.724-4.724V44.071
			c0-1.96-1.132-3.709-2.828-4.399L65.515,34.78c-0.985-0.408-2.043-0.408-3.062,0l-12.136,4.892c-1.7,0.69-2.836,2.439-2.836,4.399
			v14.157l-11.717,4.724c-1.697,0.696-2.833,2.448-2.833,4.401v14.369c0,1.781,0.945,3.404,2.415,4.203l12.135,6.529
			c1.213,0.662,2.686,0.662,3.894,0l12.622-6.793l12.624,6.793c1.211,0.662,2.685,0.662,3.896,0l12.135-6.529
			c1.477-0.797,2.424-2.422,2.424-4.203V67.354C95.072,65.4,93.934,63.645,92.239,62.952z M76.398,58.333l-10.319,4.164v-8.897
			l10.319-4.83V58.333z M51.604,43.888l12.393-4.986l12.402,4.986v0.076l-12.402,5.403l-12.393-5.403V43.888z M61.805,81.879
			l-10.318,5.545V77.105l10.318-5.066V81.879z M61.805,67.26l-12.357,5.406L37.05,67.26v-0.078l12.397-4.984l12.357,4.984V67.26z
			 M90.946,81.879l-10.31,5.545V77.105l10.31-5.066V81.879z M90.946,67.26l-12.388,5.406L66.196,67.26v-0.078l12.362-4.984
			l12.388,4.984V67.26z"/>
	</g>
</g>
<g id="Layer_15" display="none">
	<g display="inline">
		<path fill="#58A9C4" d="M64.003,0C28.659,0,0,28.656,0,64.001S28.659,128,64.003,128c35.346,0,63.996-28.654,63.996-63.999
			C128,28.656,99.349,0,64.003,0z"/>
		<g>
			<g>
				<g>
					<path fill="none" stroke="#FFFFFF" stroke-width="6" stroke-miterlimit="10" d="M47.349,34.75h32.144
						c0.55,0,1.266,0.364,1.59,0.808l12.46,17.08c0.324,0.444,0.32,1.168-0.009,1.609L64.992,92.449
						c-0.329,0.44-0.874,0.445-1.21,0.01L35.27,55.588c-0.336-0.435-0.385-1.18-0.108-1.655
						C35.162,53.934,46.799,34.75,47.349,34.75z"/>
				</g>
				<g>
					
						<line fill="none" stroke="#FFFFFF" stroke-width="6" stroke-miterlimit="10" x1="34.658" y1="54.798" x2="93.002" y2="54.958"/>
				</g>
				<g>
					<line fill="none" stroke="#FFFFFF" stroke-width="6" stroke-miterlimit="10" x1="60.327" y1="34.75" x2="51.941" y2="54.385"/>
				</g>
				<g>
					<line fill="none" stroke="#FFFFFF" stroke-width="6" stroke-miterlimit="10" x1="69.226" y1="34.75" x2="75.831" y2="54.798"/>
				</g>
				<g>
					<line fill="none" stroke="#FFFFFF" stroke-width="6" stroke-miterlimit="10" x1="51.941" y1="54.958" x2="64.394" y2="93.25"/>
				</g>
				<g>
					
						<line fill="none" stroke="#FFFFFF" stroke-width="6" stroke-miterlimit="10" x1="75.831" y1="53.445" x2="64.394" y2="91.993"/>
				</g>
			</g>
		</g>
	</g>
</g>
<g id="Layer_16" display="none">
	<g display="inline">
		<path fill="#46AAB5" d="M63.999,0C28.656,0,0,28.654,0,64.002C0,99.346,28.656,128,63.999,128C99.342,128,128,99.346,128,64.002
			C128,28.654,99.342,0,63.999,0z"/>
	</g>
	<g display="inline">
		<g>
			<g>
				<path fill="#FFFFFF" d="M32.138,43.93c0-0.55,0.45-1,1-1h61.726c0.55,0,1,0.45,1,1v7.899c0,0.55-0.45,1-1,1H33.138
					c-0.55,0-1-0.45-1-1V43.93z"/>
			</g>
			<g>
				<path fill="#FFFFFF" d="M32.138,59.602c0-0.55,0.45-1,1-1h61.726c0.55,0,1,0.45,1,1v7.9c0,0.55-0.45,1-1,1H33.138
					c-0.55,0-1-0.45-1-1V59.602z"/>
			</g>
			<g>
				<path fill="#FFFFFF" d="M32.138,76.336c0-0.55,0.45-1,1-1h61.726c0.55,0,1,0.45,1,1v7.902c0,0.55-0.45,1-1,1H33.138
					c-0.55,0-1-0.45-1-1V76.336z"/>
			</g>
			<g>
				<path fill="#58B1B8" d="M58.691,63.076c0-0.55,0.45-1,1-1h32.276c0.55,0,1,0.45,1,1v1.529c0,0.55-0.45,1-1,1H59.691
					c-0.55,0-1-0.45-1-1V63.076z"/>
			</g>
			<g>
				<path fill="#58B1B8" d="M72.209,79.52c0-0.55,0.45-1,1-1h18.759c0.55,0,1,0.45,1,1v1.534c0,0.55-0.45,1-1,1H73.209
					c-0.55,0-1-0.45-1-1V79.52z"/>
			</g>
		</g>
	</g>
</g>
<g id="Layer_17" display="none">
	<g display="inline">
		<path fill="#F7BA52" d="M64.002,0C28.66,0,0,28.655,0,64.003C0,99.344,28.659,128,64.002,128C99.348,128,128,99.344,128,64.003
			C128,28.655,99.348,0,64.002,0z"/>
		<path fill="#FFFFFF" stroke="#FFFFFF" stroke-miterlimit="10" d="M89.061,37.736H38.94c-3.193,0-5.782,2.588-5.782,5.783v42.408
			c0,3.193,2.589,5.783,5.782,5.783h50.12c3.195,0,5.783-2.59,5.783-5.783V43.52C94.844,40.325,92.256,37.736,89.061,37.736z
			 M88.338,85.928H39.665c-0.4,0-0.725-0.323-0.725-0.723V44.242c0-0.399,0.325-0.722,0.725-0.722h48.673
			c0.399,0,0.723,0.323,0.723,0.722v40.963C89.061,85.604,88.737,85.928,88.338,85.928z M83.278,74.844v2.892
			c0,0.798-0.648,1.445-1.446,1.445H57.735c-0.798,0-1.444-0.647-1.444-1.445v-2.892c0-0.798,0.646-1.446,1.444-1.446h24.097
			C82.63,73.397,83.278,74.046,83.278,74.844z M83.278,63.277v2.891c0,0.799-0.648,1.446-1.446,1.446H57.735
			c-0.798,0-1.444-0.647-1.444-1.446v-2.891c0-0.798,0.646-1.446,1.444-1.446h24.097C82.63,61.832,83.278,62.479,83.278,63.277z
			 M83.278,51.711v2.892c0,0.799-0.648,1.446-1.446,1.446H57.735c-0.798,0-1.444-0.647-1.444-1.446v-2.892
			c0-0.798,0.646-1.446,1.444-1.446h24.097C82.63,50.265,83.278,50.913,83.278,51.711z M52.917,53.158
			c0,2.395-1.942,4.335-4.337,4.335c-2.396,0-4.338-1.941-4.338-4.335c0-2.396,1.942-4.339,4.338-4.339
			C50.975,48.819,52.917,50.762,52.917,53.158z M52.917,64.724c0,2.395-1.942,4.337-4.337,4.337c-2.396,0-4.338-1.942-4.338-4.337
			s1.942-4.338,4.338-4.338C50.975,60.386,52.917,62.329,52.917,64.724z M52.917,76.288c0,2.396-1.942,4.339-4.337,4.339
			c-2.396,0-4.338-1.942-4.338-4.339c0-2.395,1.942-4.337,4.338-4.337C50.975,71.951,52.917,73.894,52.917,76.288z"/>
	</g>
</g>
<g id="Layer_18" display="none">
	<g display="inline">
		<path fill="#6BA84D" d="M63.92-0.328c-35.342,0-64,28.654-64,64.006c0,35.338,28.658,63.994,64,63.994
			c35.343,0,64-28.655,64-63.994C127.921,28.327,99.264-0.328,63.92-0.328z"/>
		<g>
			<polyline fill="none" stroke="#FFFFFF" stroke-width="6" stroke-miterlimit="10" points="34.213,34.379 34.213,91.325 96,91.325 
							"/>
			<polygon fill="#FFFFFF" stroke="#FFFFFF" stroke-width="4" stroke-miterlimit="10" points="42.676,82.055 42.676,62.84 
				57.14,43.243 76.928,62.645 86.532,50.746 92.909,62.645 92.909,82.055 			"/>
		</g>
	</g>
</g>
<g id="Layer_19" display="none">
	<path display="inline" fill="#3870B5" d="M64,0C28.658,0,0,28.655,0,64.006C0,99.345,28.658,128,64,128
		c35.343,0,64-28.655,64-63.994C128,28.655,99.343,0,64,0z"/>
	<g display="inline">
		<g>
			<path fill="none" stroke="#FFFFFF" stroke-width="6" stroke-miterlimit="10" d="M92.598,63.625C92.598,79.844,79.763,93,63.94,93
				c-15.834,0-28.662-13.155-28.662-29.375c0-16.416,13.021-29.375,28.662-29.375C79.763,34.25,92.598,47.4,92.598,63.625z"/>
			<g>
				<g>
					<path fill="#FFFFFF" d="M62.559,54.279c0.493,0.245,0.724,0.861,0.514,1.37l-2.694,6.521c-0.21,0.508-0.785,0.724-1.277,0.479
						l-5.573-2.772c-0.493-0.245-0.724-0.861-0.514-1.37l2.693-6.523c0.209-0.508,0.784-0.724,1.277-0.479L62.559,54.279z"/>
					<path fill="none" stroke="#FFFFFF" stroke-width="3" stroke-miterlimit="10" d="M62.559,54.279
						c0.493,0.245,0.724,0.861,0.514,1.37l-2.694,6.521c-0.21,0.508-0.785,0.724-1.277,0.479l-5.573-2.772
						c-0.493-0.245-0.724-0.861-0.514-1.37l2.693-6.523c0.209-0.508,0.784-0.724,1.277-0.479L62.559,54.279z"/>
				</g>
				<g>
					<path fill="#FFFFFF" d="M70.164,59.881c0.492,0.246,0.723,0.862,0.513,1.371l-1.546,3.745c-0.21,0.509-0.784,0.724-1.276,0.479
						l-3.134-1.565c-0.492-0.246-0.723-0.863-0.512-1.371l1.547-3.74c0.211-0.508,0.785-0.723,1.277-0.478L70.164,59.881z"/>
					<path fill="none" stroke="#FFFFFF" stroke-width="3" stroke-miterlimit="10" d="M70.164,59.881
						c0.492,0.246,0.723,0.862,0.513,1.371l-1.546,3.745c-0.21,0.509-0.784,0.724-1.276,0.479l-3.134-1.565
						c-0.492-0.246-0.723-0.863-0.512-1.371l1.547-3.74c0.211-0.508,0.785-0.723,1.277-0.478L70.164,59.881z"/>
				</g>
				<g>
					<path fill="#FFFFFF" d="M75.335,64.276c0.492,0.244,0.725,0.86,0.516,1.369l-0.462,1.121c-0.209,0.509-0.782,0.724-1.274,0.479
						l-0.82-0.41c-0.492-0.245-0.723-0.862-0.513-1.371l0.459-1.113c0.21-0.508,0.785-0.724,1.277-0.48L75.335,64.276z"/>
					<path fill="none" stroke="#FFFFFF" stroke-width="3" stroke-miterlimit="10" d="M75.335,64.276
						c0.492,0.244,0.725,0.86,0.516,1.369l-0.462,1.121c-0.209,0.509-0.782,0.724-1.274,0.479l-0.82-0.41
						c-0.492-0.245-0.723-0.862-0.513-1.371l0.459-1.113c0.21-0.508,0.785-0.724,1.277-0.48L75.335,64.276z"/>
				</g>
				<path fill="#FFFFFF" stroke="#FFFFFF" stroke-width="3" stroke-miterlimit="10" d="M62.58,67.299
					c0.13-0.334,0.723-0.232,2.887,0.817c2.15,1.035,2.35,1.207,2.211,1.551c-0.132,0.33-0.536,0.691-2.697-0.351
					C62.813,68.276,62.444,67.628,62.58,67.299z"/>
				<path fill="#3870B5" stroke="#FFFFFF" stroke-width="3" stroke-miterlimit="10" d="M60.912,76.753
					c-0.15,0.299-0.239,0.576-0.191,0.599l0,0c0.061,0.041,0.199-0.203,0.356-0.489l3.861-7.346c0.141-0.297,0.228-0.562,0.186-0.6
					l0,0c-0.053-0.018-0.215,0.21-0.363,0.503L60.912,76.753z"/>
				<path fill="#3870B5" stroke="#FFFFFF" stroke-width="3" stroke-miterlimit="10" d="M68.253,77.63
					c0.101,0.296,0.304,0.782,0.202,0.53l0,0c0.017,0-0.06-0.252-0.162-0.552l-2.557-7.372c-0.1-0.289-0.197-0.519-0.203-0.519l0,0
					c-0.016,0.003,0.07,0.242,0.164,0.541L68.253,77.63z"/>
			</g>
		</g>
	</g>
</g>
<g id="Layer_20" display="none">
	<path display="inline" fill="#999999" d="M128.001,64.001c0-35.346-28.658-64.001-64-64.001c-35.344,0-64,28.655-64,64.001
		c0,35.345,28.657,63.999,64,63.999C99.345,128,128.001,99.346,128.001,64.001"/>
	<path display="inline" fill="#FFFFFF" d="M83.326,57.184l-0.817,1.521c-0.3,0.557-0.939,0.791-1.506,0.566
		c-1.175-0.462-2.253-1.138-3.204-1.969c-0.46-0.404-0.578-1.121-0.277-1.673l0.82-1.517c-0.689-0.846-1.229-1.829-1.588-2.907
		h-1.646c-0.598,0-1.118-0.454-1.216-1.091c-0.203-1.27-0.208-2.61,0-3.937c0.098-0.636,0.616-1.107,1.216-1.107h1.646
		c0.358-1.073,0.898-2.06,1.588-2.909l-0.82-1.517c-0.301-0.55-0.19-1.263,0.277-1.667c0.951-0.836,2.036-1.503,3.204-1.973
		c0.566-0.221,1.206,0.009,1.506,0.577l0.817,1.515c1.049-0.198,2.113-0.198,3.164,0l0.819-1.515
		c0.296-0.567,0.937-0.798,1.501-0.577c1.178,0.47,2.253,1.138,3.204,1.973c0.461,0.406,0.578,1.117,0.278,1.667l-0.817,1.517
		c0.689,0.85,1.225,1.836,1.583,2.909h1.648c0.603,0,1.121,0.457,1.216,1.09c0.201,1.276,0.211,2.616,0,3.937
		c-0.095,0.637-0.612,1.107-1.216,1.107h-1.648c-0.358,1.079-0.894,2.061-1.583,2.907l0.817,1.517c0.3,0.551,0.19,1.269-0.278,1.673
		c-0.951,0.831-2.037,1.506-3.204,1.969c-0.564,0.225-1.205-0.008-1.501-0.564l-0.819-1.521
		C85.45,57.379,84.376,57.379,83.326,57.184z M82.283,50.941c3.839,3.142,8.216-1.521,5.267-5.602
		C83.705,42.188,79.326,46.854,82.283,50.941z M70.782,67.275l3.36,1.78c1.009,0.626,1.443,1.924,1.044,3.092
		c-0.884,2.572-2.632,4.926-4.244,6.981c-0.737,0.945-2.014,1.184-3.024,0.57l-2.902-1.791c-1.594,1.458-3.455,2.612-5.476,3.364
		v3.564c0,1.235-0.829,2.302-1.967,2.504c-2.451,0.451-5.026,0.473-7.567,0c-1.15-0.202-1.995-1.257-1.995-2.504v-3.564
		c-2.026-0.766-3.881-1.906-5.476-3.364l-2.902,1.775c-0.997,0.613-2.286,0.385-3.022-0.565c-1.617-2.059-3.323-4.415-4.208-6.972
		c-0.399-1.158,0.039-2.457,1.044-3.092l3.324-1.78c-0.39-2.218-0.39-4.498,0-6.732l-3.325-1.791
		c-1.007-0.619-1.454-1.917-1.044-3.076c0.887-2.57,2.593-4.925,4.209-6.981c0.736-0.949,2.014-1.187,3.022-0.564l2.902,1.782
		c1.595-1.457,3.45-2.609,5.476-3.364v-3.586c0-1.215,0.818-2.277,1.953-2.488c2.457-0.442,5.037-0.464,7.583-0.008
		c1.143,0.21,1.992,1.261,1.992,2.496v3.577c2.022,0.766,3.883,1.912,5.476,3.361l2.902-1.785c0.998-0.61,2.285-0.378,3.024,0.566
		c1.61,2.054,3.311,4.415,4.197,6.984c0.398,1.153,0.011,2.458-0.998,3.085l-3.361,1.776C71.172,62.761,71.172,65.048,70.782,67.275
		z M59.049,69.52c5.909-8.176-2.861-17.509-10.541-11.225C42.603,66.471,51.37,75.799,59.049,69.52z M83.326,88.904l-0.817,1.52
		c-0.3,0.564-0.939,0.791-1.506,0.575c-1.175-0.467-2.253-1.137-3.204-1.979c-0.46-0.399-0.578-1.111-0.277-1.662l0.82-1.518
		c-0.689-0.847-1.229-1.838-1.588-2.908h-1.646c-0.598,0-1.118-0.458-1.216-1.091c-0.203-1.277-0.208-2.611,0-3.938
		c0.098-0.639,0.616-1.105,1.216-1.105h1.646c0.358-1.076,0.898-2.061,1.588-2.908l-0.82-1.517c-0.301-0.552-0.19-1.269,0.277-1.673
		c0.951-0.831,2.036-1.502,3.204-1.969c0.566-0.229,1.206,0.011,1.506,0.569l0.817,1.524c1.049-0.204,2.113-0.204,3.164,0
		l0.819-1.524c0.296-0.559,0.937-0.798,1.501-0.569c1.178,0.467,2.253,1.136,3.204,1.969c0.461,0.404,0.578,1.123,0.278,1.673
		l-0.817,1.517c0.689,0.848,1.225,1.834,1.583,2.908h1.648c0.603,0,1.121,0.459,1.216,1.09c0.201,1.273,0.211,2.614,0,3.938
		c-0.095,0.64-0.612,1.106-1.216,1.106h-1.648c-0.358,1.07-0.894,2.062-1.583,2.908l0.817,1.518c0.3,0.552,0.19,1.265-0.278,1.662
		c-0.951,0.842-2.037,1.512-3.204,1.979c-0.564,0.216-1.205-0.011-1.501-0.575l-0.819-1.52
		C85.45,89.112,84.376,89.112,83.326,88.904z M82.283,82.659c3.839,3.139,8.216-1.521,5.267-5.603
		C83.705,73.915,79.326,78.572,82.283,82.659L82.283,82.659z"/>
</g>
<g id="Layer_21" display="none">
	<g display="inline">
		<ellipse fill="#5390CA" cx="64" cy="64" rx="64" ry="64"/>
		<path fill="#FFFFFF" d="M41.66,59.074c3.521,0,6.383-2.862,6.383-6.383s-2.862-6.383-6.383-6.383s-6.383,2.862-6.383,6.383
			S38.14,59.074,41.66,59.074z M86.343,59.074c3.521,0,6.384-2.862,6.384-6.383s-2.862-6.383-6.384-6.383s-6.384,2.862-6.384,6.383
			S82.821,59.074,86.343,59.074z M89.533,62.266h-6.381c-1.756,0-3.344,0.708-4.499,1.854c4.019,2.205,6.871,6.187,7.489,10.912
			h6.584c1.764,0,3.19-1.426,3.19-3.191v-3.192C95.917,65.128,93.055,62.266,89.533,62.266z M64.002,62.266
			c6.173,0,11.17-4.997,11.17-11.171c0-6.173-4.997-11.171-11.17-11.171c-6.175,0-11.171,4.998-11.171,11.171
			C52.831,57.269,57.827,62.266,64.002,62.266z M71.661,65.456h-0.828c-2.075,0.999-4.378,1.599-6.831,1.599
			c-2.455,0-4.749-0.6-6.832-1.599h-0.829c-6.342,0-11.489,5.148-11.489,11.491v2.872c0,2.643,2.145,4.787,4.788,4.787h28.724
			c2.644,0,4.789-2.145,4.789-4.787v-2.872C83.152,70.604,78.004,65.456,71.661,65.456z M49.35,64.12
			c-1.157-1.146-2.743-1.854-4.498-1.854h-6.384c-3.52,0-6.383,2.862-6.383,6.383v3.192c0,1.766,1.426,3.191,3.192,3.191h6.572
			C42.478,70.307,45.33,66.325,49.35,64.12L49.35,64.12z"/>
	</g>
</g>
<g id="Layer_22">
	<g>
		<path fill="#79B263" d="M64.003,0C28.66,0,0.001,28.654,0.001,64.003C0.001,99.346,28.659,128,64.003,128
			c35.348,0,63.998-28.654,63.998-63.997C128.001,28.654,99.352,0,64.003,0z"/>
		<g>
			<path fill="#FFFFFF" d="M75.82,43.753c0,6.053-5.023,10.963-11.236,10.963c-6.223,0-11.256-4.912-11.256-10.963
				c0-6.067,5.034-10.973,11.256-10.973C70.797,32.781,75.82,37.687,75.82,43.753z"/>
			<g>
				<path fill="#FFFFFF" d="M44.458,58.417c0-0.55,0.45-1,1-1h12.086c0.55,0,1.172,0.416,1.383,0.924l4.79,11.562
					c0.21,0.508,0.574,0.517,0.808,0.019l5.45-11.599c0.233-0.498,0.875-0.905,1.425-0.905h10.959c0.55,0,1,0.45,1,1V94.22
					c0,0.55-0.45,1-1,1h-36.9c-0.55,0-1-0.45-1-1V58.417z"/>
			</g>
			<g>
				<path fill="#FFFFFF" d="M40.415,73.574c0,0.55-0.45,1-1,1h-6.493c-0.55,0-1-0.45-1-1V53.926c0-0.55,0.45-1,1-1H37.1
					c0.55,0,1.22,0.392,1.49,0.872l1.335,2.377c0.27,0.48,0.49,1.322,0.49,1.872V73.574z"/>
			</g>
			<path fill="#FFFFFF" d="M90.294,47.887c0,3.364-2.746,6.095-6.146,6.095c-3.361,0-6.115-2.731-6.115-6.095
				c0-3.371,2.754-6.101,6.115-6.101C87.548,41.786,90.294,44.517,90.294,47.887z"/>
			<g>
				<path fill="#FFFFFF" d="M87.585,73.574c0,0.55,0.45,1,1,1h6.494c0.55,0,1-0.45,1-1V54.246c0-0.55-0.45-1-1-1h-4.177
					c-0.55,0-1.223,0.391-1.495,0.869l-1.327,2.324c-0.272,0.478-0.495,1.319-0.495,1.869V73.574z"/>
			</g>
			<path fill="#FFFFFF" d="M50.41,48.623c0,3.363-2.756,6.094-6.119,6.094c-3.39,0-6.135-2.73-6.135-6.094
				c0-3.372,2.746-6.104,6.135-6.104C47.654,42.52,50.41,45.252,50.41,48.623z"/>
		</g>
	</g>
</g>
<g id="Layer_23" display="none">
	<g display="inline">
		<path fill="#75A5AF" d="M64,0C28.656,0,0,28.654,0,64.002C0,99.346,28.656,128,64,128c35.342,0,64-28.655,64-63.998
			C128,28.654,99.342,0,64,0z"/>
	</g>
	<path display="inline" fill="#FFFFFF" stroke="#FFFFFF" stroke-width="2" stroke-miterlimit="10" d="M45.748,72.318h-9.335
		c-1.718,0-3.111,1.453-3.111,3.242v9.729c0,1.791,1.394,3.242,3.111,3.242h9.335c1.718,0,3.112-1.451,3.112-3.242v-9.729
		C48.859,73.771,47.465,72.318,45.748,72.318z M43.161,65.621h18.672v4.863H66.5v-4.863h18.671v4.863h4.667v-5.835
		c0-2.146-1.676-3.893-3.736-3.893H66.5v-6.484h3.891c1.718,0,3.111-1.452,3.111-3.243v-9.728c0-1.79-1.394-3.242-3.111-3.242
		H57.944c-1.72,0-3.113,1.452-3.113,3.242v9.728c0,1.791,1.394,3.243,3.113,3.243h3.89v6.484H42.229
		c-2.059,0-3.735,1.746-3.735,3.893v5.835h4.667V65.621z M68.836,72.317h-9.335c-1.718,0-3.111,1.453-3.111,3.242v9.729
		c0,1.791,1.394,3.242,3.111,3.242h9.335c1.718,0,3.111-1.451,3.111-3.242V75.56C71.947,73.771,70.554,72.317,68.836,72.317z
		 M91.92,72.318h-9.334c-1.719,0-3.113,1.453-3.113,3.242v9.729c0,1.791,1.395,3.242,3.113,3.242h9.334
		c1.721,0,3.113-1.451,3.113-3.242v-9.729C95.033,73.771,93.641,72.318,91.92,72.318z"/>
</g>
<g id="Layer_24" display="none">
	<path display="inline" fill="#55808C" d="M128,63.714c0-35.348-28.6-64.003-63.877-64.003C28.847-0.289,0,29.498,0,64.846
		c0,35.342,28.847,62.867,64.123,62.867C99.4,127.713,128,99.057,128,63.714"/>
	<g display="inline">
		<path fill="#FFFFFF" d="M81.179,62.054l0.492,8.731c0.073,1.271-0.68,2.447-2.265,3.533c-1.586,1.084-3.748,1.947-6.495,2.586
			c-2.741,0.635-5.717,0.953-8.924,0.953c-3.202,0-6.177-0.318-8.925-0.953c-2.741-0.639-4.909-1.496-6.493-2.586
			c-1.586-1.086-2.339-2.268-2.268-3.533l0.493-8.731l15.86,5.002c0.402,0.129,0.845,0.193,1.325,0.193s0.923-0.064,1.326-0.193
			L81.179,62.054z M95.824,53.105c0,0.424-0.201,0.709-0.61,0.857l-30.941,9.723c-0.071,0.02-0.169,0.025-0.273,0.025
			c-0.11,0-0.2-0.006-0.272-0.025l-18.01-5.689c-0.792,0.623-1.449,1.65-1.961,3.078c-0.513,1.43-0.826,3.072-0.941,4.93
			c1.162,0.664,1.74,1.668,1.74,3.014c0,1.273-0.533,2.254-1.604,2.955l1.604,11.963c0.039,0.262-0.04,0.488-0.222,0.689
			c-0.168,0.201-0.389,0.305-0.662,0.305h-5.307c-0.273,0-0.494-0.104-0.662-0.305c-0.182-0.201-0.26-0.436-0.221-0.689
			l1.604-11.963c-1.065-0.701-1.604-1.689-1.604-2.955c0-1.346,0.597-2.365,1.799-3.064c0.201-3.813,1.104-6.854,2.708-9.12
			l-9.203-2.877c-0.402-0.148-0.61-0.436-0.61-0.857s0.201-0.709,0.61-0.857l30.94-9.723c0.072-0.02,0.17-0.025,0.272-0.025
			c0.111,0,0.202,0.006,0.273,0.025l30.941,9.723C95.623,52.398,95.824,52.683,95.824,53.105L95.824,53.105z"/>
	</g>
</g>
<g id="Layer_25" display="none">
	<g display="inline">
		<g>
			<path fill="#FFFFFF" stroke="#1D1D1B" stroke-width="0.25" stroke-miterlimit="10" d="M53.569,67.598"/>
			<path fill="#FFFFFF" stroke="#FFFFFF" stroke-width="0.25" stroke-linecap="round" stroke-linejoin="round" d="M52.126,53.973"/>
			<path fill="#689DD1" d="M64.001-0.288C28.656-0.288,0,28.367,0,63.714c0,35.338,28.655,63.999,64.001,63.999
				c35.345,0,63.999-28.658,63.999-63.999C128,28.367,99.346-0.288,64.001-0.288z"/>
			<path fill="#FFFFFF" stroke="#FFFFFF" stroke-width="0.25" stroke-miterlimit="10" d="M71.405,69.096"/>
		</g>
		<g>
			<g>
				<g>
					<path fill="#FFFFFF" d="M32.728,90.23c-0.055,0-0.1,0.045-0.1,0.1v4.717c0,0.055,0.045,0.1,0.1,0.1l62.555,0.203
						c0.055,0,0.1-0.045,0.1-0.1v-4.92c0-0.055-0.045-0.1-0.1-0.1H32.728z"/>
					<path fill="none" stroke="#FFFFFF" stroke-width="0.25" stroke-miterlimit="10" d="M32.728,90.23c-0.055,0-0.1,0.045-0.1,0.1
						v4.717c0,0.055,0.045,0.1,0.1,0.1l62.555,0.203c0.055,0,0.1-0.045,0.1-0.1v-4.92c0-0.055-0.045-0.1-0.1-0.1H32.728z"/>
				</g>
				<g>
					<path fill="#FFFFFF" d="M87.034,82.775c-0.055,0-0.1-0.045-0.1-0.1l0.058-27.051c0-0.055-0.045-0.1-0.1-0.1H78.92
						c-0.055,0-0.1,0.045-0.101,0.1l-0.16,27.258c-0.001,0.055-0.046,0.1-0.101,0.1l-3.924-0.02c-0.055,0-0.1-0.045-0.1-0.1V55.519
						c0-0.055-0.045-0.1-0.1-0.098l-8.244,0.102c-0.055,0.001-0.1,0.047-0.1,0.102l-0.019,27.325c0,0.055-0.045,0.1-0.1,0.1h-3.986
						c-0.055,0-0.1-0.045-0.1-0.1l0.061-27.325c0-0.055-0.045-0.1-0.1-0.1h-8.181c-0.055,0-0.1,0.045-0.1,0.1l-0.04,26.313
						c0,0.055,0.001,0.145,0.002,0.199l0.035,1.312c0.001,0.055-0.042,0.1-0.098,0.098l-3.99-0.029c-0.055,0-0.1-0.045-0.1-0.1
						l0.016-2.119c0-0.055,0.001-0.145,0-0.199l-0.08-25.194c0-0.055-0.045-0.1-0.101-0.1h-8.17c-0.055,0-0.1,0.045-0.1,0.1
						L40.917,83.26c0,0.055-0.045,0.1-0.1,0.098l-1.115-0.037c-0.055-0.002-0.145-0.004-0.2-0.004h-2.649
						c-0.055,0-0.1,0.045-0.1,0.1v4.24c0,0.055,0.045,0.1,0.1,0.1h54.298c0.055,0,0.1-0.045,0.1-0.1v-4.781
						c0-0.055-0.045-0.1-0.1-0.1H87.034z"/>
					<path fill="none" stroke="#FFFFFF" stroke-width="0.25" stroke-miterlimit="10" d="M87.034,82.775c-0.055,0-0.1-0.045-0.1-0.1
						l0.058-27.051c0-0.055-0.045-0.1-0.1-0.1H78.92c-0.055,0-0.1,0.045-0.101,0.1l-0.16,27.258c-0.001,0.055-0.046,0.1-0.101,0.1
						l-3.924-0.02c-0.055,0-0.1-0.045-0.1-0.1V55.519c0-0.055-0.045-0.1-0.1-0.098l-8.244,0.102c-0.055,0.001-0.1,0.047-0.1,0.102
						l-0.019,27.325c0,0.055-0.045,0.1-0.1,0.1h-3.986c-0.055,0-0.1-0.045-0.1-0.1l0.061-27.325c0-0.055-0.045-0.1-0.1-0.1h-8.181
						c-0.055,0-0.1,0.045-0.1,0.1l-0.04,26.313c0,0.055,0.001,0.145,0.002,0.199l0.035,1.312c0.001,0.055-0.042,0.1-0.098,0.098
						l-3.99-0.029c-0.055,0-0.1-0.045-0.1-0.1l0.016-2.119c0-0.055,0.001-0.145,0-0.199l-0.08-25.194c0-0.055-0.045-0.1-0.101-0.1
						h-8.17c-0.055,0-0.1,0.045-0.1,0.1L40.917,83.26c0,0.055-0.045,0.1-0.1,0.098l-1.115-0.037c-0.055-0.002-0.145-0.004-0.2-0.004
						h-2.649c-0.055,0-0.1,0.045-0.1,0.1v4.24c0,0.055,0.045,0.1,0.1,0.1h54.298c0.055,0,0.1-0.045,0.1-0.1v-4.781
						c0-0.055-0.045-0.1-0.1-0.1H87.034z"/>
				</g>
				<g>
					<path fill="#FFFFFF" d="M32.486,45.599c0-0.055,0.042-0.117,0.092-0.14l31.459-13.72c0.051-0.022,0.133-0.022,0.184,0
						l31.202,13.72c0.051,0.022,0.092,0.085,0.092,0.14v4.938c0,0.056-0.045,0.101-0.1,0.101h-3.628c-0.055,0-0.1,0.045-0.1,0.101
						v2.473c0,0.055-0.045,0.1-0.1,0.1H36.562c-0.055,0-0.1-0.045-0.101-0.1l-0.011-2.473c0-0.056-0.045-0.101-0.101-0.101h-3.764
						c-0.055,0-0.1-0.045-0.1-0.101V45.599z"/>
					<path fill="none" stroke="#FFFFFF" stroke-width="0.25" stroke-miterlimit="10" d="M32.486,45.599
						c0-0.055,0.042-0.117,0.092-0.14l31.459-13.72c0.051-0.022,0.133-0.022,0.184,0l31.202,13.72
						c0.051,0.022,0.092,0.085,0.092,0.14v4.938c0,0.056-0.045,0.101-0.1,0.101h-3.628c-0.055,0-0.1,0.045-0.1,0.101v2.473
						c0,0.055-0.045,0.1-0.1,0.1H36.562c-0.055,0-0.1-0.045-0.101-0.1l-0.011-2.473c0-0.056-0.045-0.101-0.101-0.101h-3.764
						c-0.055,0-0.1-0.045-0.1-0.101V45.599z"/>
				</g>
			</g>
		</g>
	</g>
</g>
</svg>
